<?xml version="1.0" encoding="utf-8"?><!DOCTYPE svg PUBLIC "-//W3C//DTD SVG 20010904//EN" "http://www.w3.org/TR/2001/REC-SVG-20010904/DTD/svg10.dtd"><svg width="72" height="63" viewBox="0 0 72 63" xmlns="http://www.w3.org/2000/svg" xmlns:xlink="http://www.w3.org/1999/xlink"><svg version="1.0" width="16" height="9" fill="none" viewBox="0 0 16 9" id="arrow" x="48" y="24" xmlns="http://www.w3.org/2000/svg"><path d="M1 1l7 7 7-7" stroke="#7B7A7B"/></svg><svg width="18" height="24" fill="none" viewBox="0 0 18 24" id="clock" x="30" xmlns="http://www.w3.org/2000/svg"><path fill-rule="evenodd" clip-rule="evenodd" d="M17 1H1v1.23h1.976v3.011c0 .909.352 1.781.978 2.426L8.164 12l-4.21 4.333a3.483 3.483 0 00-.978 2.426v3.01H1V23h16v-1.23h-1.976v-3.01c0-.91-.352-1.782-.978-2.427L9.835 12l4.21-4.333a3.483 3.483 0 00.978-2.426v-3.01H17V1zm-3.18 20.77v-3.01a2.24 2.24 0 00-.63-1.56L9 12.885l-4.19 4.313a2.24 2.24 0 00-.63 1.56v3.01h9.64zM4.18 5.24v-3.01h9.64v3.01c0 .584-.227 1.145-.63 1.56L9 11.114 4.81 6.801a2.24 2.24 0 01-.63-1.56z" fill="#fff" stroke="#fff"/></svg><svg width="23" height="22" fill="none" viewBox="0 0 23 22" id="telegram" y="41" xmlns="http://www.w3.org/2000/svg"><path d="M22.392.412a1.662 1.662 0 00-.824-.39 1.622 1.622 0 00-.897.108L1.048 8.465a1.713 1.713 0 00-.774.675 1.847 1.847 0 00.051 2.02 1.7 1.7 0 00.808.629l4.234 1.546 2.295 7.982c.004.016.018.026.025.041a.566.566 0 00.35.338c.01.004.018.015.029.017h.006l.004.001c.084.02.172.015.255-.014.009-.002.017-.002.027-.005a.54.54 0 00.21-.141c.006-.008.017-.01.023-.016l3.3-3.833 4.816 3.924c.293.24.653.371 1.024.371.804 0 1.497-.592 1.663-1.419l3.572-18.458c.06-.314.04-.638-.062-.94a1.77 1.77 0 00-.512-.773v.002zM8.86 14.85l-.775 3.96-1.615-5.62L14.48 8.8l-5.472 5.76a.584.584 0 00-.15.29zm9.461 5.499a.636.636 0 01-.133.282.592.592 0 01-.54.211.56.56 0 01-.27-.123l-5.216-4.251a.529.529 0 00-.74.069L9.123 19.2l.773-3.95 7.873-8.285a.598.598 0 00.054-.747.547.547 0 00-.316-.22.523.523 0 00-.377.049l-11.35 6.22-4.29-1.57a.579.579 0 01-.284-.216.627.627 0 01-.111-.35.637.637 0 01.092-.36.59.59 0 01.274-.237L21.082 1.2a.56.56 0 01.61.099c.083.07.145.163.18.269a.633.633 0 01.02.328L18.32 20.35v-.001z" fill="#F6F6F6"/></svg><svg width="30" height="20" fill="none" viewBox="0 0 30 20" id="vk" xmlns="http://www.w3.org/2000/svg"><path d="M0 2.751c0-1.124.77-1.568 1.72-1.627l4.416.03c.267 0 .504.177.593.444 1.008 3.254 2.253 5.266 3.735 7.544.09.178.238.266.386.266.118 0 .237-.059.326-.207l.089-.325.03-5.119c0-.74-.356-.858-1.186-.976a.662.662 0 01-.534-.65c0-.06 0-.12.03-.178C10.02.68 11.325.03 13.162.03l1.66-.03c1.364 0 2.609.592 2.609 2.337v6.716a.625.625 0 00.385.148c.237 0 .534-.148.771-.532 1.541-2.16 3.29-4.734 3.528-6.095 0-.06.03-.089.059-.148.326-.65 1.156-1.095 1.512-1.213.06-.03.148-.06.267-.06h4.594l.297.03c.444 0 .77.296.919.563.267.414.207.858.237 1.035v.207c-.445 2.692-3.528 5.71-4.832 7.663-.178.237-.267.444-.267.65 0 .178.09.356.237.533l4.328 5.444c.238.326.356.71.356 1.036 0 .976-.919 1.538-1.808 1.627l-.504.03h-4.506c-.089 0-.148.029-.237.029-.504 0-.92-.266-1.216-.562-.948-1.154-1.867-2.337-2.786-3.491-.178-.237-.237-.266-.415-.385-.208.858-.386 1.746-.593 2.633l-.089.503c-.148.533-.534 1.095-1.245 1.243l-.415.03h-2.905c-5.129 0-9.724-7.279-12.955-16.362A2.601 2.601 0 010 2.751zm17.816 7.663c-.77 0-1.63-.444-1.63-1.272V2.337c0-.799-.356-1.094-1.334-1.094l-1.69.059c-.949 0-1.482.148-1.927.444.682.325 1.305.769 1.305 2.011v5.207c-.09 1.036-.95 1.716-1.78 1.716-.562 0-1.066-.325-1.363-.858-1.334-2.011-2.46-3.905-3.439-6.627l-.266-.769-3.943-.03c-.534 0-.474.03-.474.296 0 .178.03.415.059.562l.623 1.657c3.23 8.343 7.292 13.817 11.146 13.817h2.964c.415 0 .386-.503.474-.799l.564-2.604c.118-.266.207-.502.415-.71.237-.236.504-.325.77-.325.564 0 1.097.444 1.453.858l2.52 3.195c.207.326.385.385.504.385h4.891c.474 0 .89-.148.89-.444a.57.57 0 00-.09-.296l-4.298-5.355c-.356-.444-.504-.887-.504-1.331 0-.474.178-.947.474-1.361 1.245-1.864 3.914-4.527 4.536-6.716l.089-.385c-.03-.148-.03-.266-.06-.414h-4.654a1.619 1.619 0 00-.711.533l-.178.562c-.682 1.893-2.55 4.497-3.883 6.301-.445.415-.949.592-1.453.592z" fill="#F6F6F6"/></svg><svg width="24" height="24" fill="none" viewBox="0 0 24 24" id="whatsapp" x="48" xmlns="http://www.w3.org/2000/svg"><path d="M11.997 0a11.999 11.999 0 00-10.47 17.859L.492 21.47a1.635 1.635 0 002.035 2.035L6.14 22.47A12 12 0 1011.997 0zm0 22.588c-1.9 0-3.765-.512-5.4-1.482a.8.8 0 00-.364-.094.515.515 0 00-.188.023l-3.906 1.118a.235.235 0 01-.294-.294l1.118-3.906a.706.706 0 00-.071-.553 10.589 10.589 0 119.105 5.188zm6.059-8.612L15.644 12.6a1.646 1.646 0 00-1.659.024l-1.505.905a4.87 4.87 0 01-2.012-2.011l.906-1.506a1.647 1.647 0 00.023-1.66l-1.376-2.41a1.53 1.53 0 00-1.318-.766 4 4 0 00-4 3.989 10.118 10.118 0 0010.118 10.13h.011a4 4 0 003.988-4 1.53 1.53 0 00-.764-1.319zm-3.224 3.906h-.011a8.717 8.717 0 01-8.706-8.717 2.588 2.588 0 012.588-2.577c.037.003.07.02.094.047l1.377 2.412a.235.235 0 01-.012.235L9.068 11.13a.67.67 0 00-.047.648 6.423 6.423 0 003.2 3.2.671.671 0 00.647-.048l1.847-1.094a.236.236 0 01.235-.012l2.412 1.377a.141.141 0 01.047.094 2.588 2.588 0 01-2.577 2.588z" fill="#F6F6F6"/></svg><svg width="27" height="21" fill="none" viewBox="0 0 27 21" id="youtube" y="20" xmlns="http://www.w3.org/2000/svg"><path d="M17.832 9.887l-5.89-3.926a.737.737 0 00-1.142.614v7.85a.735.735 0 00.393.65.724.724 0 00.748-.036l5.891-3.926a.737.737 0 000-1.226zm-5.56 3.164V7.95l3.83 2.551-3.83 2.551zm14.04-9.629a2.698 2.698 0 00-1.632-1.84C20.496-.025 13.782 0 13.5 0c-.282 0-6.995-.025-11.18 1.582a2.7 2.7 0 00-1.633 1.84C.368 4.624 0 6.832 0 10.5s.368 5.876.687 7.078a2.698 2.698 0 001.633 1.84C6.505 21.025 13.218 21 13.5 21h.086c.847 0 7.106-.05 11.094-1.582a2.7 2.7 0 001.633-1.84c.319-1.202.687-3.41.687-7.078s-.368-5.876-.687-7.078zM24.89 17.21a1.227 1.227 0 01-.736.834c-3.927 1.508-10.58 1.484-10.653 1.484-.074 0-6.725.024-10.653-1.484a1.228 1.228 0 01-.736-.834c-.295-1.129-.638-3.202-.638-6.71s.343-5.581.638-6.71a1.226 1.226 0 01.736-.834C6.775 1.447 13.427 1.472 13.5 1.472c.074 0 6.726-.025 10.653 1.484a1.228 1.228 0 01.736.834c.295 1.129.638 3.202.638 6.71s-.343 5.581-.638 6.71z" fill="#F6F6F6"/></svg></svg>