<?xml version="1.0" encoding="utf-8"?><!DOCTYPE svg PUBLIC "-//W3C//DTD SVG 20010904//EN" "http://www.w3.org/TR/2001/REC-SVG-20010904/DTD/svg10.dtd"><svg width="528" height="512" viewBox="0 0 528 512" xmlns="http://www.w3.org/2000/svg" xmlns:xlink="http://www.w3.org/1999/xlink"><svg version="1.0" width="16" height="9" fill="none" viewBox="0 0 16 9" id="arrow" x="512" xmlns="http://www.w3.org/2000/svg"><path d="M1 1l7 7 7-7" stroke="#7B7A7B"/></svg><svg fill="#fff" width="512" height="512" viewBox="0 0 512 512" id="telegram" xmlns="http://www.w3.org/2000/svg"><path d="M470.435 45.423L16.827 221.249c-18.254 8.188-24.428 24.585-4.412 33.484l116.37 37.173 281.368-174.79c15.363-10.973 31.091-8.047 17.557 4.024L186.053 341.075l-7.591 93.076c7.031 14.371 19.905 14.438 28.117 7.295l66.858-63.589 114.505 86.187c26.595 15.826 41.066 5.613 46.788-23.394l75.105-357.47c7.798-35.705-5.5-51.437-39.4-37.757z"/></svg></svg>