<svg width="18" height="24" fill="none" xmlns="http://www.w3.org/2000/svg"><path fill-rule="evenodd" clip-rule="evenodd" d="M17 1H1v1.23h1.976v3.011c0 .909.352 1.781.978 2.426L8.164 12l-4.21 4.333a3.483 3.483 0 00-.978 2.426v3.01H1V23h16v-1.23h-1.976v-3.01c0-.91-.352-1.782-.978-2.427L9.835 12l4.21-4.333a3.483 3.483 0 00.978-2.426v-3.01H17V1zm-3.18 20.77v-3.01a2.24 2.24 0 00-.63-1.56L9 12.885l-4.19 4.313a2.24 2.24 0 00-.63 1.56v3.01h9.64zM4.18 5.24V2.23h9.64v3.01c0 .584-.227 1.145-.63 1.56L9 11.114 4.81 6.801a2.24 2.24 0 01-.63-1.56z" fill="#fff" stroke="#fff"/></svg>