<svg width="70" height="63" fill="none" xmlns="http://www.w3.org/2000/svg"><mask id="a" fill="#fff"><path fill-rule="evenodd" clip-rule="evenodd" d="M38.27 42.705c.785 1.096.785 2.74-.197 3.726l-8.438 8.985c-.883.987-2.355.987-3.336.11L8.833 39.746a20.416 20.416 0 01-5.79-6.465c-4.61-8.108-3.923-18.738 1.67-25.86 7.457-9.534 20.41-9.862 28.259-1.096.098.219 6.672 11.396 6.672 11.396.59.877.49 2.192-.294 2.959l-8.242 8.876-.197.11c-.785.985-.883 2.41-.098 3.396l7.458 9.643zm5.494-41.202C51.124-1.565 59.758.408 65.351 7.64c5.887 7.56 6.182 18.847.883 26.737-1.373 2.082-3.042 3.835-4.808 5.15a.1.1 0 01-.098.11L37.484 61.334c-1.373 1.205-3.336 1.205-4.71 0l-1.766-1.535c-.687-.547-.687-1.643 0-2.3l12.07-11.287a1.885 1.885 0 00.294-2.411l-.099-.11-6.77-10.52a1.678 1.678 0 01.294-2.081l9.616-8.657c.982-.877 1.374-2.63.687-3.945l-.098-.219-5.2-10.63c-1.08-2.3-.197-5.259 1.962-6.136z"/></mask><path d="M38.073 46.43l-2.126-2.115-.03.03-.03.032 2.186 2.054zm.197-3.725l2.438-1.747-.032-.045-.033-.043-2.373 1.835zm-8.635 12.711l-2.187-2.053-.024.026-.024.026 2.235 2.001zm-3.336.11l-2.011 2.226.006.005.006.006 1.999-2.237zM8.833 39.746l2.011-2.226-.117-.106-.128-.093-1.766 2.425zm-5.79-6.465L.437 34.764l.005.009 2.603-1.492zm1.669-25.86l2.36 1.852.003-.004-2.363-1.848zM32.97 6.325l2.738-1.226-.191-.427-.312-.348-2.235 2zm6.672 11.396l-2.586 1.521.046.077.05.075 2.49-1.673zm-.294 2.959l-2.097-2.146-.052.051-.05.053 2.199 2.042zm-8.242 8.876l1.462 2.619.414-.23.322-.348-2.198-2.041zm-.197.11l-1.462-2.62-.517.288-.368.463 2.347 1.868zm-.098 3.396l2.373-1.835-.012-.017-.014-.016-2.347 1.868zM65.352 7.64l-2.374 1.835.006.008 2.367-1.843zM43.763 1.503l1.129 2.78.013-.005.013-.006-1.155-2.769zm22.47 32.874l-2.49-1.672-.007.01-.007.01 2.504 1.652zm-4.808 5.15l-1.791-2.406-1.209.9v1.506h3zm-.098.11v-3h-1.16l-.859.781 2.019 2.219zM37.484 61.334l1.979 2.255.02-.018.02-.019-2.019-2.218zm-4.71 0l1.979-2.255-.006-.005-.005-.005-1.968 2.264zm-1.766-1.535l1.967-2.264-.047-.042-.05-.039-1.87 2.345zm0-2.3l-2.049-2.192-.013.012-.012.012 2.074 2.167zm12.07-11.287l2.048 2.19.013-.011.013-.012-2.075-2.167zm.294-2.411l2.527-1.617-.13-.204-.163-.18-2.234 2zm-.099-.11l-2.522 1.624.129.2.159.178 2.234-2.002zm-6.77-10.52l-2.576 1.538.026.044.027.042 2.523-1.623zm.294-2.081l-2.007-2.23-.018.017-.018.017 2.043 2.196zm9.616-8.657l-1.998-2.237-.009.007 2.007 2.23zm.687-3.945l-2.738 1.226.037.083.042.08 2.66-1.389zm-.098-.219l2.738-1.226-.02-.046-.023-.046-2.695 1.318zm-5.2-10.63l-2.716 1.275.01.022.01.022 2.696-1.318zM40.2 48.548c2.173-2.185 2.009-5.495.508-7.589l-4.877 3.494c-.01-.013-.006-.012-.001.004a.146.146 0 01.006.043c0 .01-.002-.005.012-.04a.453.453 0 01.099-.144l4.253 4.232zm-8.378 8.923l8.438-8.986-4.373-4.107-8.439 8.986 4.374 4.107zm-7.522.293c2.075 1.854 5.46 2.01 7.57-.346l-4.47-4.002a.765.765 0 01.535-.245.523.523 0 01.362.119L24.3 57.763zM6.822 41.973l17.466 15.779L28.31 53.3 10.844 37.52l-4.022 4.452zm-6.381-7.2a23.415 23.415 0 006.626 7.398l3.532-4.85a17.417 17.417 0 01-4.953-5.531L.441 34.773zM2.352 5.568c-6.374 8.118-7.107 20.07-1.916 29.196l5.215-2.966c-4.033-7.09-3.391-16.397 1.42-22.525L2.352 5.568zm32.854-1.244C26.105-5.84 10.952-5.426 2.349 5.572L7.075 9.27C13.386 1.2 24.138.957 30.736 8.326l4.47-4.002zm4.437 13.397L42.23 16.2l-.001-.002-.004-.006-.014-.024-.055-.093-.208-.355-.746-1.269a7064.62 7064.62 0 01-4.556-7.766 457.7 457.7 0 01-.977-1.682c-.108-.19-.03-.063.041.096L30.233 7.55a3.262 3.262 0 00.143.283l.08.141.234.406a2393.873 2393.873 0 003.067 5.242 6629.092 6629.092 0 003.018 5.138l.209.355a79.766 79.766 0 00.069.118l.003.006.001.002 2.586-1.52zm1.803 5.104c1.86-1.818 2.05-4.747.688-6.776l-4.981 3.345a.654.654 0 01-.13-.427.71.71 0 01.23-.433l4.193 4.291zm-8.141 8.772l8.242-8.876-4.396-4.083-8.243 8.876 4.397 4.083zm-.932.688l.196-.11-2.925-5.239-.196.11 2.925 5.239zm.787-1.091a.47.47 0 01.11.292c-.001.036-.01.044-.012.047l-4.695-3.736c-1.522 1.913-1.88 4.895-.098 7.134l4.695-3.737zm7.483 9.676l-7.458-9.643-4.746 3.67 7.458 9.643 4.746-3.67zM67.724 5.805C61.312-2.487 51.236-4.862 42.61-1.265l2.309 5.537c6.091-2.54 13.285-.97 18.059 5.203l4.746-3.67zm1 30.245c6.01-8.949 5.69-21.654-1.006-30.253l-4.734 3.686c5.079 6.523 5.347 16.39.76 23.221l4.98 3.346zm-5.506 5.884c2.057-1.532 3.963-3.544 5.52-5.905l-5.008-3.304c-1.19 1.803-2.62 3.298-4.095 4.396l3.583 4.813zm-1.89-2.297c0 3 .002 3 .003 3h.051a3.136 3.136 0 00.51-.053 3.09 3.09 0 002.534-3.057h-6c0-.434.102-.96.409-1.474a2.911 2.911 0 012.259-1.407 2.831 2.831 0 01.18-.009h.051c.001 0 .003 0 .003 3zM39.503 63.552l23.844-21.696-4.038-4.438-23.844 21.697 4.038 4.437zm-8.707.037a6.519 6.519 0 008.667 0l-3.957-4.51a.565.565 0 01-.377.159.565.565 0 01-.376-.16l-3.957 4.51zm-1.755-1.525l1.766 1.535 3.935-4.53-1.767-1.535-3.934 4.53zm-.107-6.733c-1.797 1.72-2.113 4.966.203 6.814l3.742-4.69c.453.36.614.858.614 1.235 0 .373-.148.724-.41.975l-4.15-4.334zm12.094-11.31L28.96 55.306l4.098 4.382 12.07-11.286-4.099-4.383zm-.184 1.396a1.098 1.098 0 01-.158-.714c.032-.275.159-.507.317-.659l4.149 4.335a4.884 4.884 0 00.747-6.195l-5.055 3.233zm.195.276l.098.11 4.47-4.003-.099-.11-4.47 4.003zM33.98 34.795l6.77 10.52 5.046-3.247-6.77-10.52-5.046 3.247zm.774-5.901c-1.66 1.545-1.919 3.986-.827 5.816l5.152-3.076a1.322 1.322 0 01-.238 1.652l-4.087-4.392zm9.652-8.69L34.79 28.86l4.015 4.46 9.616-8.657-4.015-4.46zm.035-.327c-.01-.018-.003-.014.002.024a.559.559 0 01-.008.166.571.571 0 01-.052.155c-.018.034-.016.017.032-.026l3.997 4.474c1.979-1.768 2.687-5.007 1.347-7.57l-5.318 2.777zm-.177-.382l.098.22 5.476-2.453-.098-.219-5.476 2.452zM39.107 8.958l5.2 10.63 5.39-2.637-5.2-10.63-5.39 2.637zm3.528-10.234c-2.073.842-3.364 2.61-3.93 4.418a8.032 8.032 0 00.38 5.772l5.433-2.548a2.034 2.034 0 01-.086-1.433c.145-.465.376-.615.46-.65l-2.257-5.56z" fill="#fff" mask="url(#a)"/></svg>