<svg width="759" height="153" fill="none" xmlns="http://www.w3.org/2000/svg"><path d="M215 68.099h.554c3.442 0 6.826.122 9.963.122 16.421 0 24.662-9.788 24.662-21.873 0-10.995-6.949-20.72-24.171-20.72-3.751 0-7.257.18-10.332.18H215v42.29zm10.886-39.331c14.331 0 20.727 7.794 20.727 17.58 0 10.574-7.135 18.73-20.973 18.73-.432 0-3.753-.061-7.258-.122V28.95c2.584-.06 4.305-.182 7.504-.182zm57.596 39.33h3.383v-42.29h-3.383v42.29zm34.657 0h3.444l6.274-14.38h20.665l6.273 14.38h3.629l-18.759-42.653h-2.767l-18.759 42.654zm20.05-38.062l8.917 20.543h-17.897l8.98-20.543zM388.222 68.1h26.077v-3.143h-22.694v-39.15h-3.383V68.1zm55.629 0h24.417v-3.143h-21.034V48.222h18.573v-3.143h-18.573V28.95h20.418v-3.142h-23.801V68.1zm87.119-6.585c-3.015 2.415-7.135 3.986-11.748 3.986-10.762 0-18.267-7.43-18.267-18.547 0-10.693 7.136-18.547 17.592-18.547 4.674 0 8.303 1.027 11.377 3.323l1.6-2.478c-3.261-2.657-7.627-3.987-13.04-3.987-12.977 0-21.096 9.546-21.096 21.69 0 13.17 8.795 21.689 21.589 21.689 5.103 0 10.394-1.752 13.347-4.653l-1.354-2.476zm25.739-32.564h15.929V68.1h3.383V28.95h15.929v-3.142h-35.241v3.143zM622.547 68.1h3.383V25.807h-3.383V68.1zm70.267-6.585c-3.014 2.415-7.135 3.986-11.747 3.986-10.763 0-18.268-7.43-18.268-18.547 0-10.693 7.135-18.547 17.592-18.547 4.674 0 8.302 1.027 11.377 3.323l1.6-2.478c-3.261-2.657-7.627-3.987-13.039-3.987-12.977 0-21.096 9.546-21.096 21.69 0 13.17 8.794 21.689 21.588 21.689 5.104 0 10.394-1.752 13.347-4.653l-1.354-2.476zm25.37 6.585h3.445l6.274-14.38h20.664l6.273 14.38h3.629l-18.758-42.654h-2.768L718.184 68.1zm20.05-38.063l8.917 20.543h-17.897l8.98-20.543zm-522.386 82.988h17.524v4.95h1.565v-6.87h-2.859V87.17h-1.657v23.935h-12.917V87.17h-1.656v25.855zm32.459-3.508c-.934 1.181-2.56 2.031-4.397 2.031-3.251 0-5.419-2.437-5.54-6.426h11.171c.061-.444.091-.923.091-1.551 0-4.544-2.65-7.5-6.143-7.5-4.457 0-6.865 3.805-6.865 8.644 0 5.245 2.921 8.643 7.197 8.643 1.806 0 3.763-.775 4.998-2.364l-.512-1.477zm-4.968-11.635c2.83 0 4.637 2.142 4.696 5.651h-9.755c.272-3.251 2.047-5.651 5.059-5.651zm20.385 15.143h1.565v-16.62h-1.565v7.276h-8.793v-7.277h-1.565v16.621h1.565v-7.535h8.793v7.535zm4.336-14.7h5.389v14.7h1.566v-14.7h5.39v-1.92H268.06v1.92zm15.115 22.088h1.565v-8.458c1.115.996 2.68 1.403 4.336 1.403 4.215 0 6.956-3.841 6.956-8.901 0-4.913-2.409-8.386-6.324-8.386-1.957 0-3.944 1.072-4.968 2.55v-2.217h-1.565v24.009zm6.112-22.531c3.252 0 5.088 2.734 5.088 6.685 0 4.063-2.137 6.981-5.42 6.981-1.445 0-2.8-.37-4.215-1.515v-9.566c.873-1.366 2.65-2.585 4.547-2.585zm28.003 15.143h1.565v-16.62h-1.565v7.276h-8.794v-7.277h-1.564v16.621h1.564v-7.535h8.794v7.535zm6.744-13.85c1.204-.813 2.198-1.293 3.794-1.293 3.372 0 3.553 2.548 3.553 6.501-1.083-.961-2.59-1.257-3.673-1.257-2.921 0-5.15 1.847-5.15 5.171 0 3.03 1.687 4.95 4.186 4.95 2.469 0 3.793-1.367 4.637-2.77v2.548h1.566V102.72c0-4.21-1.266-6.649-5.028-6.649-1.597 0-3.042.555-4.307 1.516l.422 1.588zm3.191 12.262c-1.685 0-3.01-1.182-3.01-3.249 0-2.439 1.867-3.473 3.643-3.473 1.385 0 2.529.443 3.523 1.329v2.77c-.753 1.219-1.867 2.623-4.156 2.623zm21.891-15.033h-1.776l-3.644 11.673c-.271.923-.541 1.809-.753 2.659l-.963-2.586-4.637-11.746h-1.867l6.685 16.621-.301.887c-1.145 3.361-2.138 4.727-3.524 4.727-.542 0-1.084-.258-1.595-.553l-.512 1.476c.723.518 1.445.851 2.318.851 1.837 0 3.102-1.44 5.089-7.388l5.48-16.62zm12.346 0h-1.566v7.868c-.693.628-1.987 1.33-3.644 1.33-2.228 0-3.523-1.478-3.523-4.58v-4.618h-1.656v4.765c0 4.359 1.687 6.242 4.758 6.242 1.687 0 3.132-.628 4.065-1.403v7.017h1.566v-16.62zm15.115 16.621h1.565v-16.62h-1.565v7.276h-8.792v-7.277h-1.566v16.621h1.566v-7.535h8.792v7.535zm5.36-8.31c0 4.987 2.891 8.643 7.105 8.643 4.216 0 7.106-3.656 7.106-8.643 0-4.986-2.89-8.644-7.106-8.644-4.214 0-7.105 3.658-7.105 8.644zm1.655 0c0-4.027 2.319-6.833 5.45-6.833 3.192 0 5.451 2.844 5.451 6.833 0 4.026-2.259 6.833-5.451 6.833-3.161 0-5.45-2.845-5.45-6.833zm16.772-.813h6.895v-1.809h-6.895v1.809zm22.041 9.123h1.566v-16.62h-11.773v16.62h1.565v-14.81h8.642v14.81zm6.323 7.388h1.566v-8.458c1.114.996 2.68 1.403 4.336 1.403 4.215 0 6.955-3.841 6.955-8.901 0-4.913-2.409-8.386-6.323-8.386-1.957 0-3.944 1.072-4.968 2.55v-2.217h-1.566v24.009zm6.112-22.531c3.252 0 5.089 2.734 5.089 6.685 0 4.063-2.137 6.981-5.42 6.981-1.445 0-2.8-.37-4.215-1.515v-9.566c.873-1.366 2.65-2.585 4.546-2.585zm10.992 1.293c1.204-.813 2.197-1.293 3.793-1.293 3.372 0 3.553 2.548 3.553 6.501-1.084-.961-2.589-1.257-3.674-1.257-2.92 0-5.149 1.847-5.149 5.171 0 3.03 1.687 4.95 4.186 4.95 2.469 0 3.794-1.367 4.637-2.77v2.548h1.565V102.72c0-4.21-1.264-6.649-5.028-6.649-1.596 0-3.041.555-4.306 1.516l.423 1.588zm3.191 12.262c-1.686 0-3.011-1.182-3.011-3.249 0-2.439 1.867-3.473 3.643-3.473 1.385 0 2.53.443 3.523 1.329v2.77c-.753 1.219-1.868 2.623-4.155 2.623zm21.258-15.033h-2.018l-6.563 8.053 7.016 8.568h2.107l-7.227-8.679 6.685-7.942zm-11.051 16.621h1.566v-16.62h-1.566v16.62zm12.587-14.7h5.389v14.7h1.566v-14.7h5.391v-1.92h-12.346v1.92zm16.681 14.7l9.033-13.85v13.85h1.565v-16.62h-1.565l-9.033 13.85v-13.85h-1.566v16.62h1.566zm24.9-16.62h-1.565v7.867c-.693.628-1.988 1.33-3.643 1.33-2.229 0-3.524-1.478-3.524-4.58v-4.618h-1.655v4.765c0 4.359 1.686 6.242 4.757 6.242 1.686 0 3.131-.628 4.065-1.403v7.017h1.565v-16.62zm15.478 13.112c-.934 1.181-2.561 2.031-4.398 2.031-3.251 0-5.419-2.437-5.54-6.426h11.171c.061-.444.091-.923.091-1.551 0-4.544-2.649-7.5-6.143-7.5-4.456 0-6.865 3.805-6.865 8.644 0 5.245 2.921 8.643 7.198 8.643 1.805 0 3.762-.775 4.997-2.364l-.511-1.477zm-4.969-11.635c2.83 0 4.637 2.142 4.697 5.651h-9.755c.271-3.251 2.047-5.651 5.058-5.651zm20.324 11.376c-.933 1.33-2.47 2.29-4.216 2.29-3.161 0-5.631-2.623-5.631-6.833 0-3.952 2.47-6.833 5.331-6.833 1.566 0 3.071.48 4.275 1.81l.753-1.552c-1.295-1.514-3.161-2.069-5.27-2.069-3.853 0-6.744 3.805-6.744 8.644 0 5.245 2.981 8.643 7.166 8.643 1.988 0 3.975-.923 5.119-2.697l-.783-1.403zm15.266-12.854h-2.018l-6.563 8.053 7.016 8.568h2.107l-7.227-8.679 6.685-7.942zm-11.051 16.621h1.566v-16.62h-1.566v16.62zm12.947-8.31c0 4.987 2.891 8.643 7.107 8.643 4.215 0 7.105-3.656 7.105-8.643 0-4.986-2.89-8.644-7.105-8.644-4.216 0-7.107 3.658-7.107 8.644zm1.656 0c0-4.027 2.319-6.833 5.451-6.833 3.191 0 5.449 2.844 5.449 6.833 0 4.026-2.258 6.833-5.449 6.833-3.163 0-5.451-2.845-5.451-6.833zm17.946 8.31l9.034-13.85v13.85h1.565v-16.62h-1.565l-9.034 13.85v-13.85h-1.565v16.62h1.565zm.512-25.263c0 2.696 1.536 4.727 4.215 4.727 2.44 0 4.095-2.03 4.095-4.727h-1.414c0 1.808-1.085 3.25-2.681 3.25-1.686 0-2.8-1.442-2.8-3.25h-1.415zm32.127 25.263h1.567v-16.62h-11.774v16.62h1.565v-14.81h8.642v14.81zm16.862-3.767c-.933 1.33-2.469 2.29-4.215 2.29-3.161 0-5.631-2.623-5.631-6.833 0-3.952 2.47-6.833 5.33-6.833 1.565 0 3.071.48 4.276 1.81l.752-1.552c-1.294-1.514-3.162-2.069-5.27-2.069-3.853 0-6.744 3.805-6.744 8.644 0 5.245 2.982 8.643 7.167 8.643 1.987 0 3.974-.923 5.117-2.697l-.782-1.403zm5.781 3.767l9.034-13.85v13.85h1.565v-16.62h-1.565l-9.034 13.85v-13.85h-1.566v16.62h1.566zm26.647-16.62h-1.837l-4.365 6.87-4.306-6.87h-1.927l5.089 8.125-5.389 8.495h1.837l4.636-7.35 4.637 7.35h1.926l-5.389-8.568 5.088-8.053zm1.987 8.31c0 4.987 2.891 8.643 7.107 8.643 4.215 0 7.105-3.656 7.105-8.643 0-4.986-2.89-8.644-7.105-8.644-4.216 0-7.107 3.658-7.107 8.644zm1.656 0c0-4.027 2.319-6.833 5.451-6.833 3.191 0 5.449 2.844 5.449 6.833 0 4.026-2.258 6.833-5.449 6.833-3.163 0-5.451-2.845-5.451-6.833zm25.323 8.31h1.566v-16.62h-8.762l-.211 5.171c-.422 8.716-2.589 9.751-3.493 9.713l.121 1.884c2.107 0 4.306-1.44 4.878-11.227l.18-3.622h5.721v14.701zm5.36-8.31c0 4.987 2.891 8.643 7.107 8.643 4.215 0 7.105-3.656 7.105-8.643 0-4.986-2.89-8.644-7.105-8.644-4.216 0-7.107 3.658-7.107 8.644zm1.656 0c0-4.027 2.319-6.833 5.451-6.833 3.191 0 5.449 2.844 5.449 6.833 0 4.026-2.258 6.833-5.449 6.833-3.163 0-5.451-2.845-5.451-6.833zm16.381 8.31h1.565v-14.81h6.595v-1.81h-8.16v16.62zm12.194 0l9.034-13.85v13.85h1.564v-16.62h-1.564l-9.034 13.85v-13.85h-1.566v16.62h1.566zm16.921 0l9.034-13.85v13.85h1.566v-16.62h-1.566l-9.034 13.85v-13.85h-1.565v16.62h1.565z" fill="#4D4D4D"/><path fill-rule="evenodd" clip-rule="evenodd" d="M26.537 25.248S47.06-.204 117.402 7.769c2.585.486 3.411 1.69 3.828 2.64.58 1.322.372 2.995-.078 4.544-13.485 7.433-27.493 24.826-31.233 31.211-4.706 8.04-1.666 13.67 6.034 15.469L94.7 63.458c-2.227.67-5.197 1.758-8.66 3.622C64.543 45.8 24.674 33.245 24.11 33.245c-.03 0-.096-.058-.193-.166.06-2.869.826-5.554 2.619-7.831z" fill="#94B0B7"/><path fill-rule="evenodd" clip-rule="evenodd" d="M132.461 12.034s10-.105 19.052 9.504 20.63 24.128 20.419 27.209c.33 1.486-.535 3.379-2.798 5.148-.8-.351-1.708-.58-2.732-.66-9.369-.731-40.209 3.447-51.575 6.58-3.408.938-5.461 2.441-6.669 4.083-5.733.212-10.444.11-13.121-.464-.348-.062-.693-.13-1.037-.214 12.708-18.635 23.698-41.84 24.108-43.238.199-.544 1.23-2.394 1.835-4.462l.33-.18c4.225-2.263 8.393-3.57 12.188-3.306z" fill="#C2C8C5"/><path fill-rule="evenodd" clip-rule="evenodd" d="M168.935 52.508c6.339 2.796 5.927 13.525 5.831 18.262-.106 5.32-.204 29.54-11.246 34.855-2.155 1.037-4.747 1.274-7.523.988a3.758 3.758 0 00-.051-.006c.393-3.486-.18-6.895-2.549-9.824-2.864-3.542-15.56-3.855-26.055-3.43-1.471.238-6.971.738-9.471.738 2.5-3 8.971-5.11 10.038-5.65 3.527-1.789 12.167-8.484 2.76-17.785-5.865-5.442-13.476-7.648-19.873-8.404 17.767-.766 44.597-4.418 50.734-6.248 3.304-.946 5.743-2.187 7.405-3.496z" fill="#AABABD"/><path fill-rule="evenodd" clip-rule="evenodd" d="M57.159 108.883s-1.381-2.585-.3-7.703C71.233 96.238 84.69 84 85.914 82.767c1.432-1.64 7.668-5.8 5.265-9.966a56.317 56.317 0 00-1.795-2.17l.003-.004c1.781-2.235 5.31-7.168 5.31-7.168-.044-.105 13.937-1.427 15.12-1.312-2.9 3.787-1.099 8.419-1.099 8.419C111.106 78.338 121.5 89 127.5 93.5c-1.491 0-7.931.306-9.42.43-3.091.258-5.193.502-5.533.573-1.468.308-5.002.87-4.648 7.34.713 13.003 8.235 17.315 17.359 19.245l-.002-.005c2.796 6.761 5.634 12.871 7.382 14.892 0 0 1.787 2.76 3.214 3.886 1.275 1.005 2.517 1.975 2.693 2.564.398 1.332-6.384 1.301-12.011.451-4.983-.753-8.762-2.217-10.229-2.971-14.609-7.511-17.05-18.547-31.184-18.193-4.09.102-24.333-2.045-27.962-12.829z" fill="#4A707A"/><path fill-rule="evenodd" clip-rule="evenodd" d="M138.777 122.898s10.332 1.538 13.502-5.105c1.645-3.448 3.218-7.325 3.659-11.113l.008-.072c-11.436-1.208-25.961-11.306-25.961-11.306s-1.03-.701-2.643-1.948L124 90.5c-3.474.142-5 2.346-5.92 3.43-1.112 1.312-1.645 2.92-1.059 4.936.98 3.38 4.574 13.362 8.237 22.222-.002-.005.235.049.235.049 4.265.88 8.867 1.255 13.284 1.761z" fill="#7697A0"/><path fill-rule="evenodd" clip-rule="evenodd" d="M65.614 84.545c-14.986-2.526-28.035-22.091-28.035-22.091S23.645 45.926 23.918 33.079c.097.108.163.166.193.166.564 0 40.433 12.556 61.927 33.835-5.404 2.907-12.01 7.702-18.86 15.74a80.737 80.737 0 00-1.444 1.744l-.12-.02z" fill="#85A4AC"/><path fill-rule="evenodd" clip-rule="evenodd" d="M.902 71.985s-3.987-13.289 4.805-25.247c8.277-11.257 16.734-13.276 18.21-13.475-.138 12.82 13.661 29.19 13.661 29.19s13.12 19.67 28.156 22.112c-5.684 7.07-8.03 12.614-8.876 16.613-6.272 2.156-12.72 2.926-18.403.784C19.745 94.908 3.765 81.285.902 71.985z" fill="#7697A0"/><path fill-rule="evenodd" clip-rule="evenodd" d="M56.858 101.18c.844-4 3.19-9.545 8.876-16.616 2.573.419 5.203.336 7.833-.441 4.84-1.43 10.344-6.622 15.816-13.489a66.025 66.025 0 00-3.344-3.554l.006-.003a61.857 61.857 0 015.135 5.724c2.403 4.165-3.833 8.326-5.266 9.966C84.69 84 71.234 96.238 56.859 101.18z" fill="#60848D"/><path fill-rule="evenodd" clip-rule="evenodd" d="M94.7 63.458a137.967 137.967 0 01-5.312 7.17l-.005.006a65.102 65.102 0 00-3.345-3.554c3.464-1.864 6.434-2.952 8.661-3.622z" fill="#6F9099"/><path fill-rule="evenodd" clip-rule="evenodd" d="M95 63.5c-8.052-1.85-11.579-8.138-6.658-16.406C92.252 40.528 106.9 22.642 121 15c-.614 2.081-1.661 3.943-1.863 4.49-.416 1.406-11.23 25.258-24.137 44.01z" fill="#ABBCBE"/><path fill-rule="evenodd" clip-rule="evenodd" d="M118.08 93.93c-3.091.258-5.193.502-5.533.573-1.468.308-5.002.87-4.648 7.339.713 13.004 8.235 17.316 17.359 19.246-3.663-8.86-7.257-18.842-8.237-22.222-.586-2.016-.054-3.624 1.059-4.936z" fill="#60848D"/><path fill-rule="evenodd" clip-rule="evenodd" d="M155.946 106.608c.392-3.486-.181-6.895-2.549-9.825-2.864-3.542-15.56-3.855-26.056-3.43a60.3 60.3 0 002.644 1.949s14.525 10.098 25.961 11.306z" fill="#90A9AF"/><path fill-rule="evenodd" clip-rule="evenodd" d="M168.934 52.508c-1.661 1.31-4.101 2.55-7.404 3.496-6.264 1.867-34.087 5.635-51.825 6.293 1.173-1.608 3.168-3.078 6.478-3.997 11.041-3.066 40.997-7.154 50.097-6.438a8.077 8.077 0 012.654.646z" fill="#B6C1C1"/><path fill-rule="evenodd" clip-rule="evenodd" d="M108.718 70.566s-1.8-4.633 1.1-8.419c6.586.642 14.683 2.787 20.851 8.509 9.406 9.3.767 15.996-2.76 17.784-1.068.541-2.654 1.13-4.297 1.863-5.355-4.634-12.507-11.965-14.894-19.737z" fill="#7A959C"/><path fill-rule="evenodd" clip-rule="evenodd" d="M89.383 70.634c-5.473 6.867-10.976 12.06-15.816 13.489-2.63.777-5.26.86-7.834.441.46-.571.941-1.153 1.445-1.745 6.85-8.037 13.456-12.832 18.86-15.74a65.061 65.061 0 013.345 3.555z" fill="#73949D"/></svg>