<svg width="30" height="30" fill="none" xmlns="http://www.w3.org/2000/svg"><rect width="30" height="30" rx="2" fill="#4A707A" fill-opacity=".5"/><path fill-rule="evenodd" clip-rule="evenodd" d="M9.42 21.505c4.155-.607 7.016-.555 11.178.021a1.261 1.261 0 011.08 1.256c0 .292-.1.575-.281.796-.316.385-.639.764-.97 1.136h1.604l.305-.367a2.47 2.47 0 00.556-1.564c0-1.23-.897-2.289-2.128-2.459-4.26-.59-7.237-.646-11.52-.02A2.511 2.511 0 007.106 22.8c0 .55.18 1.093.519 1.534l.297.382h1.565a35.13 35.13 0 01-.9-1.123 1.302 1.302 0 01-.266-.793c0-.654.47-1.202 1.098-1.294zM15 15.607a3.643 3.643 0 100-7.285 3.643 3.643 0 000 7.285zm0 1.215a4.857 4.857 0 100-9.714 4.857 4.857 0 000 9.714z" fill="#fff"/><path fill-rule="evenodd" clip-rule="evenodd" d="M15 25.928c6.035 0 10.928-4.892 10.928-10.928 0-6.036-4.893-10.929-10.928-10.929C8.964 4.071 4.07 8.964 4.07 15c0 6.036 4.893 10.928 10.929 10.928zm0 1.215c6.706 0 12.143-5.437 12.143-12.143 0-6.707-5.437-12.143-12.143-12.143C8.293 2.857 2.857 8.293 2.857 15c0 6.706 5.436 12.143 12.143 12.143z" fill="#fff"/></svg>