<svg width="71" height="65" fill="none" xmlns="http://www.w3.org/2000/svg"><path fill-rule="evenodd" clip-rule="evenodd" d="M23.206 17.518c1.992 2.17 5.357 3.102 11.521 3.234.351-4.656 2.145-8.323 4.8-10.898 2.95-2.862 6.86-4.273 10.742-4.273 3.881 0 7.794 1.41 10.744 4.273 2.97 2.88 4.862 7.131 4.862 12.602V41.02c0 5.2-.866 10.633-3.486 14.816-2.699 4.306-7.154 7.121-13.821 7.121-6.82 0-11.568-4.047-15.91-7.793L32.47 55c-4.37-3.774-8.446-7.289-14.237-8.075-2.84.022-4.752.89-6.087 2.077-1.384 1.232-2.278 2.926-2.835 4.745-.557 1.816-.75 3.662-.797 5.073a21.883 21.883 0 00.04 2.253l.004.023-1.679.173c-1.679.172-1.679.17-1.679.168v-.005l-.002-.015-.005-.046c-.02-.239-.035-.479-.045-.718a25.714 25.714 0 01-.007-1.948c.054-1.591.27-3.754.943-5.947.67-2.188 1.825-4.503 3.818-6.277 2.025-1.802 4.789-2.931 8.439-2.931.849 0 1.648.018 2.416.037 1.428.034 2.747.067 4.07-.034 1.95-.145 3.556-.57 4.884-1.564 2.543-1.907 4.745-6.455 4.94-17.862-6.276-.13-10.936-1.063-13.93-4.327-1.626-1.772-2.63-4.092-3.236-6.963-.602-2.858-.832-6.37-.832-10.63h3.375c0 4.176.228 7.414.76 9.933.53 2.51 1.338 4.197 2.42 5.378zM34.438 52.24c-2.208-1.906-4.57-3.948-7.301-5.589 1.593-.308 3.165-.889 4.598-1.962 2.194-1.645 3.848-4.276 4.91-8.316 2.778-1.873 5.063-2.27 7.068-2.05 2.146.236 4.13 1.186 6.316 2.295l.365.185c1.986 1.01 4.227 2.15 6.608 2.449a9.347 9.347 0 005.498-.96v2.727c0 4.924-.837 9.617-2.972 13.025-2.059 3.288-5.417 5.535-10.962 5.535-5.395 0-9.244-3.123-13.702-6.97l-.425-.369zM62.5 34.312V22.456c0-4.654-1.586-7.999-3.837-10.179-2.268-2.202-5.316-3.32-8.394-3.32-3.078 0-6.126 1.118-8.394 3.32-2.25 2.182-3.835 5.525-3.835 10.18 0 3.701-.19 6.877-.559 9.594 2.332-1.036 4.52-1.311 6.602-1.083 2.838.312 5.335 1.556 7.474 2.64l.151.077c2.179 1.103 3.936 1.994 5.716 2.219 1.502.189 3.129-.095 5.076-1.592z" fill="#fff"/></svg>