<svg width="23" height="22" fill="none" xmlns="http://www.w3.org/2000/svg"><path d="M22.392.412a1.662 1.662 0 00-.824-.39 1.622 1.622 0 00-.897.108L1.048 8.465a1.713 1.713 0 00-.774.675 1.847 1.847 0 00.051 2.02 1.7 1.7 0 00.808.629l4.234 1.546 2.295 7.982c.004.016.018.026.025.041a.566.566 0 00.35.338c.01.004.018.015.029.017h.006l.004.001c.084.02.172.015.255-.014.009-.002.017-.002.027-.005a.54.54 0 00.21-.141c.006-.008.017-.01.023-.016l3.3-3.833 4.816 3.924c.293.24.653.371 1.024.371.804 0 1.497-.592 1.663-1.419l3.572-18.458c.06-.314.04-.638-.062-.94a1.77 1.77 0 00-.512-.773v.002zM8.86 14.85l-.775 3.96-1.615-5.62 8.01-4.39-5.472 5.76a.584.584 0 00-.15.29zm9.461 5.499a.636.636 0 01-.133.282.592.592 0 01-.54.211.56.56 0 01-.27-.123l-5.216-4.251a.529.529 0 00-.74.069L9.123 19.2l.773-3.95 7.873-8.285a.598.598 0 00.054-.747.547.547 0 00-.316-.22.523.523 0 00-.377.049l-11.35 6.22-4.29-1.57a.579.579 0 01-.284-.216.627.627 0 01-.111-.35.637.637 0 01.092-.36.59.59 0 01.274-.237L21.082 1.2a.56.56 0 01.61.099c.083.07.145.163.18.269a.633.633 0 01.02.328L18.32 20.35v-.001z" fill="#F6F6F6"/></svg>