<svg width="30" height="20" fill="none" xmlns="http://www.w3.org/2000/svg"><path d="M0 2.751c0-1.124.77-1.568 1.72-1.627l4.416.03a.63.63 0 01.593.444c1.008 3.254 2.253 5.266 3.735 7.544.09.178.238.266.386.266.118 0 .237-.059.326-.207l.089-.325.03-5.119c0-.74-.356-.858-1.186-.976a.662.662 0 01-.534-.65c0-.06 0-.12.03-.178C10.02.68 11.325.03 13.162.03l1.66-.03c1.364 0 2.609.592 2.609 2.337v6.716a.625.625 0 00.385.148c.237 0 .534-.148.771-.532 1.541-2.16 3.29-4.734 3.528-6.095 0-.06.03-.089.059-.148.326-.65 1.156-1.095 1.512-1.213.06-.03.148-.06.267-.06h4.594l.297.03c.444 0 .77.296.919.563.267.414.207.858.237 1.035v.207c-.445 2.692-3.528 5.71-4.832 7.663-.178.237-.267.444-.267.65 0 .178.09.356.237.533l4.328 5.444c.238.326.356.71.356 1.036 0 .976-.919 1.538-1.808 1.627l-.504.03h-4.506c-.089 0-.148.029-.237.029-.504 0-.92-.266-1.216-.562-.948-1.154-1.867-2.337-2.786-3.491-.178-.237-.237-.266-.415-.385-.208.858-.386 1.746-.593 2.633l-.089.503c-.148.533-.534 1.095-1.245 1.243l-.415.03h-2.905c-5.129 0-9.724-7.279-12.955-16.362A2.601 2.601 0 010 2.751zm17.816 7.663c-.77 0-1.63-.444-1.63-1.272V2.337c0-.799-.356-1.094-1.334-1.094l-1.69.059c-.949 0-1.482.148-1.927.444.682.325 1.305.769 1.305 2.011v5.207c-.09 1.036-.95 1.716-1.78 1.716-.562 0-1.066-.325-1.363-.858-1.334-2.011-2.46-3.905-3.439-6.627l-.266-.769-3.943-.03c-.534 0-.474.03-.474.296 0 .178.03.415.059.562l.623 1.657c3.23 8.343 7.292 13.817 11.146 13.817h2.964c.415 0 .386-.503.474-.799l.564-2.604c.118-.266.207-.502.415-.71.237-.236.504-.325.77-.325.564 0 1.097.444 1.453.858l2.52 3.195c.207.326.385.385.504.385h4.891c.474 0 .89-.148.89-.444a.57.57 0 00-.09-.296l-4.298-5.355c-.356-.444-.504-.887-.504-1.331 0-.474.178-.947.474-1.361 1.245-1.864 3.914-4.527 4.536-6.716l.089-.385c-.03-.148-.03-.266-.06-.414h-4.654a1.619 1.619 0 00-.711.533l-.178.562c-.682 1.893-2.55 4.497-3.883 6.301-.445.415-.949.592-1.453.592z" fill="#F6F6F6"/></svg>