<svg width="24" height="24" fill="none" xmlns="http://www.w3.org/2000/svg"><path d="M11.997 0a11.999 11.999 0 00-10.47 17.859L.492 21.47a1.635 1.635 0 002.035 2.035L6.14 22.47A12 12 0 1011.997 0zm0 22.588c-1.9 0-3.765-.512-5.4-1.482a.8.8 0 00-.364-.094.515.515 0 00-.188.023l-3.906 1.118a.235.235 0 01-.294-.294l1.118-3.906a.706.706 0 00-.071-.553 10.589 10.589 0 119.105 5.188zm6.059-8.612L15.644 12.6a1.646 1.646 0 00-1.659.024l-1.505.905a4.87 4.87 0 01-2.012-2.011l.906-1.506a1.647 1.647 0 00.023-1.66l-1.376-2.41a1.53 1.53 0 00-1.318-.766 4 4 0 00-4 3.989 10.118 10.118 0 0010.118 10.13h.011a4 4 0 003.988-4 1.53 1.53 0 00-.764-1.319zm-3.224 3.906h-.011a8.717 8.717 0 01-8.706-8.717 2.588 2.588 0 012.588-2.577.14.14 0 01.094.047l1.377 2.412a.235.235 0 01-.012.235L9.068 11.13a.67.67 0 00-.047.648 6.423 6.423 0 003.2 3.2.671.671 0 00.647-.048l1.847-1.094a.236.236 0 01.235-.012l2.412 1.377a.141.141 0 01.047.094 2.588 2.588 0 01-2.577 2.588z" fill="#F6F6F6"/></svg>