<svg width="27" height="21" fill="none" xmlns="http://www.w3.org/2000/svg"><path d="M17.832 9.887l-5.89-3.926a.737.737 0 00-1.142.614v7.85a.735.735 0 00.393.65.724.724 0 00.748-.036l5.891-3.926a.737.737 0 000-1.226zm-5.56 3.164V7.95l3.83 2.551-3.83 2.551zm14.04-9.629a2.698 2.698 0 00-1.632-1.84C20.496-.025 13.782 0 13.5 0c-.282 0-6.995-.025-11.18 1.582a2.7 2.7 0 00-1.633 1.84C.368 4.624 0 6.832 0 10.5s.368 5.876.687 7.078a2.698 2.698 0 001.633 1.84C6.505 21.025 13.218 21 13.5 21h.086c.847 0 7.106-.05 11.094-1.582a2.7 2.7 0 001.633-1.84c.319-1.202.687-3.41.687-7.078s-.368-5.876-.687-7.078zM24.89 17.21a1.227 1.227 0 01-.736.834c-3.927 1.508-10.58 1.484-10.653 1.484-.074 0-6.725.024-10.653-1.484a1.228 1.228 0 01-.736-.834c-.295-1.129-.638-3.202-.638-6.71s.343-5.581.638-6.71a1.226 1.226 0 01.736-.834C6.775 1.447 13.427 1.472 13.5 1.472c.074 0 6.726-.025 10.653 1.484a1.228 1.228 0 01.736.834c.295 1.129.638 3.202.638 6.71s-.343 5.581-.638 6.71z" fill="#F6F6F6"/></svg>