<svg width="18" height="24" viewBox="0 0 18 24" fill="none" xmlns="http://www.w3.org/2000/svg">
<path fill-rule="evenodd" clip-rule="evenodd" d="M17 1.00002L1 1.00002L1 2.23044H2.9759V5.24096C2.9759 6.14993 3.32764 7.02206 3.95449 7.66735L8.16332 12L3.95449 16.3327C3.32764 16.978 2.9759 17.8501 2.9759 18.7591V21.7696H1L1 23H17V21.7696H15.0241V18.7591C15.0241 17.8501 14.6724 16.978 14.0455 16.3327L9.83668 12L14.0455 7.66735C14.6724 7.02206 15.0241 6.14993 15.0241 5.24096V2.23044H17V1.00002ZM13.8193 21.7696V18.7591C13.8193 18.1747 13.5932 17.6141 13.1902 17.1992L9 12.8858L4.80982 17.1992C4.40684 17.6141 4.18072 18.1747 4.18072 18.7591L4.18072 21.7696H13.8193ZM4.18072 5.24096V2.23044L13.8193 2.23044V5.24096C13.8193 5.8253 13.5932 6.38595 13.1902 6.80078L9 11.1143L4.80982 6.80078C4.40684 6.38595 4.18072 5.82529 4.18072 5.24096Z" fill="white" stroke="white"/>
</svg>
