<svg width="70" height="63" viewBox="0 0 70 63" fill="none" xmlns="http://www.w3.org/2000/svg">
<mask id="path-1-inside-1_52_144" fill="white">
<path fill-rule="evenodd" clip-rule="evenodd" d="M38.2696 42.7051C39.0546 43.8009 39.0546 45.4446 38.0734 46.4308L29.6348 55.4163C28.7517 56.4025 27.2799 56.4025 26.2987 55.5259L8.83284 39.7465C6.57602 38.1028 4.61357 36.0208 3.04361 33.2813C-1.56815 25.1725 -0.881291 14.5433 4.71169 7.42068C12.169 -2.1127 25.1212 -2.44143 32.971 6.32489C33.0691 6.54404 39.6433 17.7211 39.6433 17.7211C40.2321 18.5977 40.1339 19.9127 39.349 20.6797L31.1067 29.5556L30.9104 29.6652C30.1254 30.6514 30.0273 32.0759 30.8123 33.0622L38.2696 42.7051ZM43.7641 1.50341C51.1233 -1.5648 59.7581 0.407624 65.3511 7.63984C71.2384 15.2008 71.5328 26.4874 66.2342 34.3771C64.8605 36.4591 63.1924 38.2124 61.4262 39.5273C61.4262 39.6369 61.328 39.6369 61.328 39.6369L37.4843 61.3335C36.1105 62.5389 34.1481 62.5389 32.7744 61.3335L31.0082 59.7994C30.3213 59.2515 30.3213 58.1558 31.0082 57.4983L43.0772 46.2116C43.7641 45.5542 43.8622 44.568 43.3716 43.8009L43.2735 43.6913L36.503 33.1717C36.1105 32.5143 36.2087 31.6376 36.7974 31.0897L46.4134 22.433C47.3946 21.5564 47.7871 19.8031 47.1003 18.4882L47.0022 18.269L41.8017 7.63984C40.7223 5.33868 41.6054 2.38005 43.7641 1.50341Z"/>
</mask>
<path d="M38.0734 46.4308L35.9467 44.3149L35.9162 44.3455L35.8865 44.3771L38.0734 46.4308ZM38.2696 42.7051L40.7084 40.958L40.6764 40.9133L40.6428 40.8699L38.2696 42.7051ZM29.6348 55.4163L27.448 53.3626L27.4236 53.3885L27.3999 53.415L29.6348 55.4163ZM26.2987 55.5259L24.2875 57.7519L24.2937 57.7575L24.2999 57.7631L26.2987 55.5259ZM8.83284 39.7465L10.844 37.5204L10.7267 37.4145L10.599 37.3215L8.83284 39.7465ZM3.04361 33.2813L0.435844 34.7644L0.440745 34.773L3.04361 33.2813ZM4.71169 7.42068L7.0712 9.27345L7.07464 9.26905L4.71169 7.42068ZM32.971 6.32489L35.7091 5.09894L35.5179 4.67206L35.2059 4.32362L32.971 6.32489ZM39.6433 17.7211L37.0575 19.2421L37.1029 19.3193L37.1528 19.3937L39.6433 17.7211ZM39.349 20.6797L37.2523 18.5341L37.2002 18.585L37.1506 18.6383L39.349 20.6797ZM31.1067 29.5556L32.5692 32.175L32.9827 31.9441L33.305 31.597L31.1067 29.5556ZM30.9104 29.6652L29.4478 27.0459L28.9315 27.3342L28.5632 27.7969L30.9104 29.6652ZM30.8123 33.0622L33.1854 31.2269L33.1726 31.2103L33.1595 31.1939L30.8123 33.0622ZM65.3511 7.63984L62.9779 9.47511L62.984 9.48295L65.3511 7.63984ZM43.7641 1.50341L44.8929 4.28296L44.9057 4.27774L44.9186 4.27239L43.7641 1.50341ZM66.2342 34.3771L63.7437 32.7045L63.7369 32.7147L63.7301 32.7249L66.2342 34.3771ZM61.4262 39.5273L59.6346 37.121L58.4262 38.0207V39.5273H61.4262ZM61.328 39.6369V36.6369H60.1674L59.309 37.418L61.328 39.6369ZM37.4843 61.3335L39.4629 63.5885L39.4833 63.5707L39.5033 63.5524L37.4843 61.3335ZM32.7744 61.3335L34.753 59.0786L34.7474 59.0736L34.7417 59.0686L32.7744 61.3335ZM31.0082 59.7994L32.9754 57.5345L32.928 57.4933L32.8789 57.4542L31.0082 59.7994ZM31.0082 57.4983L28.9591 55.3071L28.9463 55.319L28.9337 55.3311L31.0082 57.4983ZM43.0772 46.2116L45.1264 48.4028L45.1391 48.3909L45.1517 48.3788L43.0772 46.2116ZM43.3716 43.8009L45.8989 42.1844L45.7683 41.9802L45.6065 41.7996L43.3716 43.8009ZM43.2735 43.6913L40.7508 45.3149L40.8797 45.5152L41.0386 45.6926L43.2735 43.6913ZM36.503 33.1717L33.9271 34.7095L33.953 34.7529L33.9804 34.7954L36.503 33.1717ZM36.7974 31.0897L34.7902 28.8601L34.7718 28.8767L34.7536 28.8936L36.7974 31.0897ZM46.4134 22.433L44.4147 20.1958L44.4062 20.2034L46.4134 22.433ZM47.1003 18.4882L44.3622 19.7141L44.3992 19.7968L44.4412 19.8771L47.1003 18.4882ZM47.0022 18.269L49.7402 17.0431L49.7194 16.9965L49.6969 16.9505L47.0022 18.269ZM41.8017 7.63984L39.0856 8.91379L39.0961 8.93613L39.1069 8.95829L41.8017 7.63984ZM40.2001 48.5467C42.3733 46.3624 42.2087 43.0523 40.7084 40.958L35.8308 44.4522C35.8213 44.4389 35.8247 44.4395 35.8297 44.4564C35.8347 44.4735 35.8362 44.4901 35.8358 44.4995C35.8355 44.5084 35.8343 44.4937 35.8484 44.4589C35.8638 44.4211 35.8946 44.3672 35.9467 44.3149L40.2001 48.5467ZM31.8217 57.47L40.2602 48.4845L35.8865 44.3771L27.448 53.3626L31.8217 57.47ZM24.2999 57.7631C26.3748 59.6168 29.7603 59.7733 31.8698 57.4175L27.3999 53.415C27.5359 53.2631 27.7443 53.1748 27.9352 53.1704C28.1085 53.1665 28.2308 53.2291 28.2974 53.2886L24.2999 57.7631ZM6.82172 41.9725L24.2875 57.7519L28.3098 53.2998L10.844 37.5204L6.82172 41.9725ZM0.440745 34.773C2.23236 37.8992 4.48769 40.2932 7.06667 42.1715L10.599 37.3215C8.66435 35.9124 6.99479 34.1424 5.64648 31.7896L0.440745 34.773ZM2.3522 5.5679C-4.02238 13.6859 -4.7547 25.6379 0.435858 34.7644L5.65136 31.7982C1.6184 24.7071 2.2598 15.4007 7.07119 9.27345L2.3522 5.5679ZM35.2059 4.32362C26.1046 -5.84029 10.9519 -5.42585 2.34875 5.5723L7.07464 9.26905C13.3862 1.20045 24.1377 0.957428 30.7361 8.32616L35.2059 4.32362ZM39.6433 17.7211C42.2292 16.2001 42.2292 16.2001 42.2291 16.2C42.2291 16.1999 42.229 16.1998 42.2289 16.1996C42.2287 16.1993 42.2284 16.1988 42.228 16.1981C42.2272 16.1968 42.226 16.1947 42.2244 16.1921C42.2213 16.1867 42.2166 16.1787 42.2104 16.1681C42.1979 16.147 42.1795 16.1157 42.1554 16.0747C42.1073 15.9929 42.0367 15.8728 41.9467 15.7198C41.7669 15.4139 41.5098 14.9766 41.2009 14.4512C40.5833 13.4002 39.7588 11.9969 38.9314 10.5868C38.1037 9.17642 37.2739 7.7608 36.6453 6.68476C36.3308 6.14628 36.0682 5.69558 35.8819 5.37395C35.7883 5.21242 35.7167 5.08803 35.6682 5.00302C35.5601 4.81333 35.6378 4.93972 35.7091 5.09894L30.2329 7.55083C30.2831 7.66299 30.3338 7.75594 30.3346 7.7574C30.35 7.78626 30.3649 7.81323 30.3762 7.83358C30.3995 7.87562 30.4272 7.92444 30.456 7.97495C30.5146 8.07774 30.5942 8.21597 30.6898 8.38103C30.8819 8.71259 31.149 9.17105 31.4646 9.71124C32.0962 10.7925 32.9284 12.2123 33.7566 13.6235C34.5849 15.0351 35.4101 16.4397 36.0282 17.4914C36.3372 18.0172 36.5945 18.4548 36.7746 18.761C36.8646 18.9141 36.9353 19.0343 36.9835 19.1163C37.0076 19.1573 37.0261 19.1887 37.0386 19.2099C37.0448 19.2205 37.0495 19.2285 37.0527 19.2339C37.0543 19.2366 37.0555 19.2387 37.0563 19.24C37.0567 19.2407 37.057 19.2412 37.0572 19.2415C37.0573 19.2417 37.0573 19.2418 37.0574 19.2419C37.0574 19.242 37.0575 19.2421 39.6433 17.7211ZM41.4456 22.8254C43.3069 21.0067 43.4966 18.0777 42.1338 16.0485L37.1528 19.3937C37.0234 19.2009 37.0166 19.0461 37.0239 18.9671C37.0317 18.8819 37.0737 18.7086 37.2523 18.5341L41.4456 22.8254ZM33.305 31.597L41.5473 22.7211L37.1506 18.6383L28.9083 27.5142L33.305 31.597ZM32.373 32.2845L32.5692 32.175L29.6441 26.9363L29.4478 27.0459L32.373 32.2845ZM33.1595 31.1939C33.2573 31.3168 33.2721 31.4379 33.2701 31.4857C33.2687 31.522 33.2601 31.5304 33.2576 31.5335L28.5632 27.7969C27.0406 29.7098 26.6836 32.6922 28.4651 34.9305L33.1595 31.1939ZM40.6428 40.8699L33.1854 31.2269L28.4391 34.8974L35.8965 44.5404L40.6428 40.8699ZM67.7242 5.80458C61.312 -2.48693 51.2363 -4.8622 42.6097 -1.26557L44.9186 4.27239C51.0103 1.7326 58.2041 3.30218 62.9779 9.4751L67.7242 5.80458ZM68.7247 36.0497C74.7342 27.1014 74.414 14.396 67.7181 5.79673L62.984 9.48295C68.0629 16.0055 68.3314 25.8734 63.7437 32.7045L68.7247 36.0497ZM63.2177 41.9337C65.2749 40.4021 67.1807 38.3899 68.7382 36.0293L63.7301 32.7249C62.5403 34.5283 61.1099 36.0227 59.6346 37.121L63.2177 41.9337ZM61.328 39.6369C61.328 42.6369 61.3297 42.6369 61.3313 42.6369C61.3319 42.6369 61.3335 42.6369 61.3346 42.6369C61.3368 42.6369 61.339 42.6369 61.3413 42.6369C61.3457 42.6369 61.3502 42.6368 61.3547 42.6368C61.3638 42.6367 61.373 42.6366 61.3824 42.6364C61.4011 42.6361 61.4206 42.6355 61.4407 42.6348C61.481 42.6333 61.5244 42.6309 61.5708 42.6272C61.6625 42.6199 61.7711 42.6071 61.8923 42.5845C62.1222 42.5418 62.466 42.4512 62.8396 42.2426C63.2308 42.0241 63.664 41.669 63.9867 41.1285C64.3118 40.584 64.4262 40.0163 64.4262 39.5273H58.4262C58.4262 39.0931 58.5283 38.5665 58.8349 38.0529C59.1393 37.5431 59.5479 37.2086 59.9146 37.0038C60.2637 36.8089 60.5829 36.7252 60.7945 36.6858C60.9064 36.665 61.0074 36.6531 61.0937 36.6462C61.1374 36.6427 61.1788 36.6404 61.2176 36.639C61.237 36.6382 61.2559 36.6377 61.2743 36.6374C61.2835 36.6372 61.2926 36.6371 61.3015 36.637C61.306 36.637 61.3105 36.637 61.3149 36.6369C61.3171 36.6369 61.3193 36.6369 61.3215 36.6369C61.3226 36.6369 61.3242 36.6369 61.3248 36.6369C61.3264 36.6369 61.328 36.6369 61.328 39.6369ZM39.5033 63.5524L63.3471 41.8558L59.309 37.418L35.4652 59.1147L39.5033 63.5524ZM30.7957 63.5885C33.3015 65.7872 36.9571 65.7872 39.4629 63.5885L35.5056 59.0786C35.362 59.2046 35.2298 59.2376 35.1293 59.2376C35.0288 59.2376 34.8967 59.2046 34.753 59.0786L30.7957 63.5885ZM29.0409 62.0643L30.8071 63.5985L34.7417 59.0686L32.9754 57.5345L29.0409 62.0643ZM28.9337 55.3311C27.1368 57.0511 26.8209 60.2968 29.1374 62.1447L32.8789 57.4542C33.3317 57.8153 33.493 58.3129 33.493 58.6899C33.493 59.0626 33.3455 59.4139 33.0826 59.6654L28.9337 55.3311ZM41.0281 44.0205L28.9591 55.3071L33.0573 59.6894L45.1264 48.4028L41.0281 44.0205ZM40.8444 45.4174C40.7217 45.2257 40.6547 44.9726 40.6858 44.703C40.7176 44.4281 40.8447 44.1958 41.0028 44.0445L45.1517 48.3788C46.8892 46.7157 47.1504 44.1411 45.8989 42.1844L40.8444 45.4174ZM41.0386 45.6926L41.1367 45.8022L45.6065 41.7996L45.5084 41.69L41.0386 45.6926ZM33.9804 34.7954L40.7508 45.3149L45.7962 42.0677L39.0257 31.5481L33.9804 34.7954ZM34.7536 28.8936C33.0933 30.4388 32.8353 32.8805 33.9271 34.7095L39.079 31.634C39.3858 32.148 39.324 32.8365 38.8412 33.2859L34.7536 28.8936ZM44.4062 20.2034L34.7902 28.8601L38.8046 33.3194L48.4206 24.6626L44.4062 20.2034ZM44.4412 19.8771C44.4315 19.8586 44.4383 19.863 44.443 19.9007C44.4478 19.94 44.4477 19.9982 44.4348 20.0666C44.4217 20.1356 44.4002 20.1898 44.3831 20.2221C44.3652 20.2557 44.3666 20.2387 44.4147 20.1958L48.4121 24.6702C50.3908 22.9025 51.0986 19.6631 49.7594 17.0992L44.4412 19.8771ZM44.2641 19.4949L44.3622 19.7141L49.8384 17.2623L49.7402 17.0431L44.2641 19.4949ZM39.1069 8.95829L44.3074 19.5875L49.6969 16.9505L44.4964 6.32138L39.1069 8.95829ZM42.6353 -1.27614C40.5618 -0.43409 39.2712 1.33346 38.7055 3.14164C38.1392 4.95165 38.2086 7.04405 39.0856 8.91379L44.5177 6.36588C44.3154 5.93447 44.2867 5.39696 44.4318 4.93321C44.5774 4.46763 44.8077 4.31755 44.8929 4.28296L42.6353 -1.27614Z" fill="white" mask="url(#path-1-inside-1_52_144)"/>
</svg>
