<svg width="759" height="153" viewBox="0 0 759 153" fill="none" xmlns="http://www.w3.org/2000/svg">
<path d="M215 68.0989H215.554C218.996 68.0989 222.38 68.2206 225.517 68.2206C241.938 68.2206 250.179 58.4326 250.179 46.3481C250.179 35.3528 243.23 25.6271 226.008 25.6271C222.257 25.6271 218.751 25.8074 215.676 25.8074H215V68.0989ZM225.886 28.7677C240.217 28.7677 246.613 36.562 246.613 46.3481C246.613 56.9223 239.478 65.0782 225.64 65.0782C225.208 65.0782 221.887 65.0169 218.382 64.9564V28.9498C220.966 28.8894 222.687 28.7677 225.886 28.7677ZM283.482 68.0989H286.865V25.8074H283.482V68.0989ZM318.139 68.0989H321.583L327.857 53.7186H348.522L354.795 68.0989H358.424L339.665 25.4449H336.898L318.139 68.0989ZM338.189 30.0364L347.106 50.5788H329.209L338.189 30.0364ZM388.222 68.0989H414.299V64.9564H391.605V25.8074H388.222V68.0989ZM443.851 68.0989H468.268V64.9564H447.234V48.2218H465.807V45.0794H447.234V28.9498H467.652V25.8074H443.851V68.0989ZM530.97 61.5137C527.955 63.9294 523.835 65.5002 519.222 65.5002C508.46 65.5002 500.955 58.0693 500.955 46.9531C500.955 36.2599 508.091 28.4061 518.547 28.4061C523.221 28.4061 526.85 29.4331 529.924 31.7288L531.524 29.251C528.263 26.5937 523.897 25.2637 518.484 25.2637C505.507 25.2637 497.388 34.81 497.388 46.9531C497.388 60.1233 506.183 68.6426 518.977 68.6426C524.08 68.6426 529.371 66.8906 532.324 63.9898L530.97 61.5137ZM556.709 28.9498H572.638V68.0989H576.021V28.9498H591.95V25.8074H556.709V28.9498ZM622.547 68.0989H625.93V25.8074H622.547V68.0989ZM692.814 61.5137C689.8 63.9294 685.679 65.5002 681.067 65.5002C670.304 65.5002 662.799 58.0693 662.799 46.9531C662.799 36.2599 669.934 28.4061 680.391 28.4061C685.065 28.4061 688.693 29.4331 691.768 31.7288L693.368 29.251C690.107 26.5937 685.741 25.2637 680.329 25.2637C667.352 25.2637 659.233 34.81 659.233 46.9531C659.233 60.1233 668.027 68.6426 680.821 68.6426C685.925 68.6426 691.215 66.8906 694.168 63.9898L692.814 61.5137ZM718.184 68.0989H721.629L727.903 53.7186H748.567L754.84 68.0989H758.469L739.711 25.4449H736.943L718.184 68.0989ZM738.234 30.0364L747.151 50.5788H729.254L738.234 30.0364Z" fill="#4D4D4D"/>
<path d="M215.848 113.025H233.372V117.975H234.937V111.105H232.078V87.17H230.421V111.105H217.504V87.17H215.848V113.025ZM248.307 109.517C247.373 110.698 245.747 111.548 243.91 111.548C240.659 111.548 238.491 109.111 238.37 105.122H249.541C249.602 104.678 249.632 104.199 249.632 103.571C249.632 99.0271 246.982 96.0712 243.489 96.0712C239.032 96.0712 236.624 99.8764 236.624 104.715C236.624 109.96 239.545 113.358 243.821 113.358C245.627 113.358 247.584 112.583 248.819 110.994L248.307 109.517ZM243.339 97.8819C246.169 97.8819 247.976 100.024 248.035 103.533H238.28C238.552 100.282 240.327 97.8819 243.339 97.8819ZM263.724 113.025H265.289V96.4044H263.724V103.681H254.931V96.4044H253.366V113.025H254.931V105.49H263.724V113.025ZM268.06 98.3243H273.449V113.025H275.015V98.3243H280.405V96.4044H268.06V98.3243ZM283.175 120.413H284.74V111.955C285.855 112.951 287.42 113.358 289.076 113.358C293.291 113.358 296.032 109.517 296.032 104.457C296.032 99.5442 293.623 96.0712 289.708 96.0712C287.751 96.0712 285.764 97.1427 284.74 98.6211V96.4044H283.175V120.413ZM289.287 97.8819C292.539 97.8819 294.375 100.616 294.375 104.567C294.375 108.63 292.238 111.548 288.955 111.548C287.51 111.548 286.155 111.178 284.74 110.033V100.467C285.613 99.1008 287.39 97.8819 289.287 97.8819ZM317.29 113.025H318.855V96.4044H317.29V103.681H308.496V96.4044H306.932V113.025H308.496V105.49H317.29V113.025ZM324.034 99.1746C325.238 98.3625 326.232 97.8819 327.828 97.8819C331.2 97.8819 331.381 100.43 331.381 104.383C330.298 103.422 328.791 103.126 327.708 103.126C324.787 103.126 322.558 104.973 322.558 108.297C322.558 111.327 324.245 113.247 326.744 113.247C329.213 113.247 330.537 111.88 331.381 110.477V113.025H332.947V102.72C332.947 98.51 331.681 96.0712 327.919 96.0712C326.322 96.0712 324.877 96.6265 323.612 97.5869L324.034 99.1746ZM327.225 111.437C325.54 111.437 324.215 110.255 324.215 108.188C324.215 105.749 326.082 104.715 327.858 104.715C329.243 104.715 330.387 105.158 331.381 106.044V108.814C330.628 110.033 329.514 111.437 327.225 111.437ZM349.116 96.4044H347.34L343.696 108.077C343.425 109 343.155 109.886 342.943 110.736L341.98 108.15L337.343 96.4044H335.476L342.161 113.025L341.86 113.912C340.715 117.273 339.722 118.639 338.336 118.639C337.794 118.639 337.252 118.381 336.741 118.086L336.229 119.562C336.952 120.08 337.674 120.413 338.547 120.413C340.384 120.413 341.649 118.973 343.636 113.025L349.116 96.4044ZM361.462 96.4044H359.896V104.272C359.203 104.9 357.909 105.602 356.252 105.602C354.024 105.602 352.729 104.124 352.729 101.022V96.4044H351.073V101.169C351.073 105.528 352.76 107.411 355.831 107.411C357.518 107.411 358.963 106.783 359.896 106.008V113.025H361.462V96.4044ZM376.577 113.025H378.142V96.4044H376.577V103.681H367.785V96.4044H366.219V113.025H367.785V105.49H376.577V113.025ZM381.937 104.715C381.937 109.702 384.828 113.358 389.042 113.358C393.258 113.358 396.148 109.702 396.148 104.715C396.148 99.7289 393.258 96.0712 389.042 96.0712C384.828 96.0712 381.937 99.7289 381.937 104.715ZM383.592 104.715C383.592 100.688 385.911 97.8819 389.042 97.8819C392.234 97.8819 394.493 100.726 394.493 104.715C394.493 108.741 392.234 111.548 389.042 111.548C385.881 111.548 383.592 108.703 383.592 104.715ZM400.364 103.902H407.259V102.093H400.364V103.902ZM422.405 113.025H423.971V96.4044H412.198V113.025H413.763V98.2151H422.405V113.025ZM428.728 120.413H430.294V111.955C431.408 112.951 432.974 113.358 434.63 113.358C438.845 113.358 441.585 109.517 441.585 104.457C441.585 99.5442 439.176 96.0712 435.262 96.0712C433.305 96.0712 431.318 97.1427 430.294 98.6211V96.4044H428.728V120.413ZM434.84 97.8819C438.092 97.8819 439.929 100.616 439.929 104.567C439.929 108.63 437.792 111.548 434.509 111.548C433.064 111.548 431.709 111.178 430.294 110.033V100.467C431.167 99.1008 432.944 97.8819 434.84 97.8819ZM445.832 99.1746C447.036 98.3625 448.029 97.8819 449.625 97.8819C452.997 97.8819 453.178 100.43 453.178 104.383C452.094 103.422 450.589 103.126 449.504 103.126C446.584 103.126 444.355 104.973 444.355 108.297C444.355 111.327 446.042 113.247 448.541 113.247C451.01 113.247 452.335 111.88 453.178 110.477V113.025H454.743V102.72C454.743 98.51 453.479 96.0712 449.715 96.0712C448.119 96.0712 446.674 96.6265 445.409 97.5869L445.832 99.1746ZM449.023 111.437C447.337 111.437 446.012 110.255 446.012 108.188C446.012 105.749 447.879 104.715 449.655 104.715C451.04 104.715 452.185 105.158 453.178 106.044V108.814C452.425 110.033 451.31 111.437 449.023 111.437ZM470.281 96.4044H468.263L461.7 104.457L468.716 113.025H470.823L463.596 104.346L470.281 96.4044ZM459.23 113.025H460.796V96.4044H459.23V113.025ZM471.817 98.3243H477.206V113.025H478.772V98.3243H484.163V96.4044H471.817V98.3243ZM488.498 113.025L497.531 99.1746V113.025H499.096V96.4044H497.531L488.498 110.255V96.4044H486.932V113.025H488.498ZM513.398 96.4044H511.833V104.272C511.14 104.9 509.845 105.602 508.19 105.602C505.961 105.602 504.666 104.124 504.666 101.022V96.4044H503.011V101.169C503.011 105.528 504.697 107.411 507.768 107.411C509.454 107.411 510.899 106.783 511.833 106.008V113.025H513.398V96.4044ZM528.876 109.517C527.942 110.698 526.315 111.548 524.478 111.548C521.227 111.548 519.059 109.111 518.938 105.122H530.109C530.17 104.678 530.2 104.199 530.2 103.571C530.2 99.0271 527.551 96.0712 524.057 96.0712C519.601 96.0712 517.192 99.8764 517.192 104.715C517.192 109.96 520.113 113.358 524.39 113.358C526.195 113.358 528.152 112.583 529.387 110.994L528.876 109.517ZM523.907 97.8819C526.737 97.8819 528.544 100.024 528.604 103.533H518.849C519.12 100.282 520.896 97.8819 523.907 97.8819ZM544.231 109.258C543.298 110.588 541.761 111.548 540.015 111.548C536.854 111.548 534.384 108.925 534.384 104.715C534.384 100.763 536.854 97.8819 539.715 97.8819C541.281 97.8819 542.786 98.3625 543.99 99.6925L544.743 98.1404C543.448 96.6265 541.582 96.0712 539.473 96.0712C535.62 96.0712 532.729 99.8764 532.729 104.715C532.729 109.96 535.71 113.358 539.895 113.358C541.883 113.358 543.87 112.435 545.014 110.661L544.231 109.258ZM559.497 96.4044H557.479L550.916 104.457L557.932 113.025H560.039L552.812 104.346L559.497 96.4044ZM548.446 113.025H550.012V96.4044H548.446V113.025ZM561.393 104.715C561.393 109.702 564.284 113.358 568.5 113.358C572.715 113.358 575.605 109.702 575.605 104.715C575.605 99.7289 572.715 96.0712 568.5 96.0712C564.284 96.0712 561.393 99.7289 561.393 104.715ZM563.049 104.715C563.049 100.688 565.368 97.8819 568.5 97.8819C571.691 97.8819 573.949 100.726 573.949 104.715C573.949 108.741 571.691 111.548 568.5 111.548C565.337 111.548 563.049 108.703 563.049 104.715ZM580.995 113.025L590.029 99.1746V113.025H591.594V96.4044H590.029L580.995 110.255V96.4044H579.43V113.025H580.995ZM581.507 87.7617C581.507 90.4581 583.043 92.4891 585.722 92.4891C588.162 92.4891 589.817 90.4581 589.817 87.7617H588.403C588.403 89.5705 587.318 91.0116 585.722 91.0116C584.036 91.0116 582.922 89.5705 582.922 87.7617H581.507ZM613.634 113.025H615.201V96.4044H603.427V113.025H604.992V98.2151H613.634V113.025ZM630.496 109.258C629.563 110.588 628.027 111.548 626.281 111.548C623.12 111.548 620.65 108.925 620.65 104.715C620.65 100.763 623.12 97.8819 625.98 97.8819C627.545 97.8819 629.051 98.3625 630.256 99.6925L631.008 98.1404C629.714 96.6265 627.846 96.0712 625.738 96.0712C621.885 96.0712 618.994 99.8764 618.994 104.715C618.994 109.96 621.976 113.358 626.161 113.358C628.148 113.358 630.135 112.435 631.278 110.661L630.496 109.258ZM636.277 113.025L645.311 99.1746V113.025H646.876V96.4044H645.311L636.277 110.255V96.4044H634.711V113.025H636.277ZM662.924 96.4044H661.087L656.722 103.275L652.416 96.4044H650.489L655.578 104.53L650.189 113.025H652.026L656.662 105.675L661.299 113.025H663.225L657.836 104.457L662.924 96.4044ZM664.911 104.715C664.911 109.702 667.802 113.358 672.018 113.358C676.233 113.358 679.123 109.702 679.123 104.715C679.123 99.7289 676.233 96.0712 672.018 96.0712C667.802 96.0712 664.911 99.7289 664.911 104.715ZM666.567 104.715C666.567 100.688 668.886 97.8819 672.018 97.8819C675.209 97.8819 677.467 100.726 677.467 104.715C677.467 108.741 675.209 111.548 672.018 111.548C668.855 111.548 666.567 108.703 666.567 104.715ZM691.89 113.025H693.456V96.4044H684.694L684.483 101.576C684.061 110.292 681.894 111.327 680.99 111.289L681.111 113.173C683.218 113.173 685.417 111.733 685.989 101.946L686.169 98.3243H691.89V113.025ZM697.25 104.715C697.25 109.702 700.141 113.358 704.357 113.358C708.572 113.358 711.462 109.702 711.462 104.715C711.462 99.7289 708.572 96.0712 704.357 96.0712C700.141 96.0712 697.25 99.7289 697.25 104.715ZM698.906 104.715C698.906 100.688 701.225 97.8819 704.357 97.8819C707.548 97.8819 709.806 100.726 709.806 104.715C709.806 108.741 707.548 111.548 704.357 111.548C701.194 111.548 698.906 108.703 698.906 104.715ZM715.287 113.025H716.852V98.2151H723.447V96.4044H715.287V113.025ZM727.481 113.025L736.515 99.1746V113.025H738.079V96.4044H736.515L727.481 110.255V96.4044H725.915V113.025H727.481ZM744.402 113.025L753.436 99.1746V113.025H755.002V96.4044H753.436L744.402 110.255V96.4044H742.837V113.025H744.402Z" fill="#4D4D4D"/>
<path fill-rule="evenodd" clip-rule="evenodd" d="M26.5369 25.2476C26.5369 25.2476 47.0609 -0.20353 117.402 7.76932C119.987 8.25529 120.813 9.45912 121.23 10.4089C121.81 11.7309 121.602 13.4038 121.152 14.9532H121.152C107.667 22.3859 93.6586 39.7789 89.919 46.1641C85.2126 54.2044 88.2527 59.8345 95.9531 61.6327L94.6992 63.4584C92.4722 64.1283 89.5022 65.2157 86.0382 67.0797C64.5438 45.8007 24.6751 33.2453 24.1108 33.2453C24.0806 33.2453 24.0148 33.1866 23.918 33.0791C23.9775 30.2104 24.7444 27.5246 26.5369 25.2476Z" fill="#94B0B7"/>
<path fill-rule="evenodd" clip-rule="evenodd" d="M132.461 12.0335C132.461 12.0335 142.461 11.9291 151.513 21.538C160.565 31.1469 172.143 45.6655 171.932 48.7468C172.262 50.233 171.397 52.1259 169.134 53.8954C168.334 53.544 167.426 53.3153 166.402 53.2354C157.033 52.5036 126.193 56.6816 114.827 59.8147C111.419 60.7534 109.366 62.256 108.158 63.8983C102.425 64.1098 97.7145 64.0081 95.0366 63.4344C94.6889 63.3717 94.344 63.3037 94 63.2201C106.708 44.5852 117.698 21.3791 118.108 19.9819C118.307 19.4381 119.338 17.5878 119.943 15.5197C119.942 15.5197 120.273 15.3409 120.273 15.3409C124.498 13.0766 128.666 11.7702 132.461 12.0335Z" fill="#C2C8C5"/>
<path fill-rule="evenodd" clip-rule="evenodd" d="M168.935 52.5075C175.274 55.3043 174.862 66.0331 174.766 70.7703C174.66 76.0902 174.562 100.31 163.52 105.625C161.365 106.662 158.773 106.899 155.997 106.613C155.981 106.611 155.964 106.609 155.946 106.607C156.339 103.121 155.766 99.712 153.397 96.7828C150.533 93.2406 137.837 92.9279 127.342 93.3535C125.871 93.5909 120.371 94.0909 117.871 94.0909C120.371 91.0909 126.842 88.9815 127.909 88.4404C131.436 86.652 140.076 79.9567 130.669 70.6556C124.804 65.214 117.193 63.008 110.796 62.2519C128.563 61.4861 155.393 57.8337 161.53 56.0044C164.834 55.0582 167.273 53.8171 168.935 52.5075Z" fill="#AABABD"/>
<path fill-rule="evenodd" clip-rule="evenodd" d="M57.1588 108.883C57.1588 108.883 55.7778 106.298 56.8584 101.18C71.2336 96.2383 84.69 84.0001 85.9146 82.7669C87.3471 81.1268 93.5829 76.9663 91.18 72.8013C90.605 72.0692 90.006 71.346 89.3848 70.6317L89.3884 70.6273C91.1693 68.392 94.6982 63.4594 94.6982 63.4594C94.6539 63.3537 108.635 62.0318 109.818 62.1471C106.918 65.9337 108.719 70.566 108.719 70.566C111.106 78.338 121.5 89 127.5 93.5C126.009 93.5 119.569 93.8061 118.08 93.9301C114.989 94.1878 112.887 94.4321 112.547 94.5032C111.079 94.8106 107.545 95.3738 107.899 101.843C108.612 114.846 116.134 119.158 125.258 121.088L125.256 121.083C128.052 127.844 130.89 133.954 132.638 135.975C132.638 135.975 134.425 138.735 135.852 139.861C137.127 140.866 138.369 141.836 138.545 142.425C138.943 143.757 132.161 143.726 126.534 142.876C121.551 142.123 117.772 140.659 116.305 139.905C101.696 132.394 99.2545 121.358 85.121 121.712C81.0313 121.814 60.7881 119.667 57.1588 108.883Z" fill="#4A707A"/>
<path fill-rule="evenodd" clip-rule="evenodd" d="M138.777 122.898C138.777 122.898 149.109 124.436 152.279 117.793C153.924 114.345 155.497 110.468 155.938 106.68L155.946 106.608C144.51 105.4 129.985 95.3018 129.985 95.3018C129.985 95.3018 128.955 94.6008 127.342 93.3543L124 90.5C120.526 90.6422 119 92.8455 118.08 93.9301C116.968 95.2423 116.435 96.8504 117.021 98.8662C118.001 102.246 121.595 112.228 125.258 121.088C125.256 121.083 125.493 121.137 125.493 121.137C129.758 122.017 134.36 122.392 138.777 122.898Z" fill="#7697A0"/>
<path fill-rule="evenodd" clip-rule="evenodd" d="M65.6138 84.5446C50.6281 82.0188 37.5787 62.4536 37.5787 62.4536C37.5787 62.4536 23.6452 45.926 23.918 33.0792C24.0149 33.1867 24.0807 33.2453 24.1109 33.2453C24.6752 33.2453 64.5438 45.8007 86.0382 67.0797C80.6342 69.9867 74.0287 74.7816 67.1787 82.8193C66.6749 83.411 66.1932 83.9929 65.7338 84.5642L65.6138 84.5446Z" fill="#85A4AC"/>
<path fill-rule="evenodd" clip-rule="evenodd" d="M0.902025 71.9848C0.902025 71.9848 -3.08546 58.6964 5.7071 46.738C13.9842 35.4806 22.4409 33.4621 23.9169 33.2631C23.7792 46.0832 37.5785 62.4536 37.5785 62.4536C37.5785 62.4536 50.6972 82.1227 65.7336 84.5651C60.0496 91.6344 57.7035 97.1791 56.8584 101.178C50.5861 103.334 44.1388 104.104 38.4548 101.962C19.7446 94.9083 3.76445 81.285 0.902025 71.9848Z" fill="#7697A0"/>
<path fill-rule="evenodd" clip-rule="evenodd" d="M56.8584 101.18C57.7018 97.1809 60.0487 91.6353 65.7336 84.5642C68.3072 84.9827 70.9368 84.9 73.5673 84.1227C78.407 82.6932 83.9106 77.5011 89.383 70.6344C88.33 69.4243 87.2102 68.24 86.0389 67.0797L86.0452 67.0771C87.9069 68.9197 89.631 70.8298 91.1799 72.8013C93.5829 76.9663 87.3471 81.1268 85.9145 82.7669C84.6899 84.0001 71.2336 96.2383 56.8584 101.18Z" fill="#60848D"/>
<path fill-rule="evenodd" clip-rule="evenodd" d="M94.6991 63.4584C92.9475 65.9772 91.1693 68.392 89.3884 70.6273L89.3831 70.6344C88.33 69.4234 87.2102 68.2391 86.0381 67.0797C89.5021 65.2158 92.4721 64.1283 94.6991 63.4584Z" fill="#6F9099"/>
<path fill-rule="evenodd" clip-rule="evenodd" d="M95 63.5C86.9484 61.6509 83.4211 55.3616 88.3422 47.0938C92.2523 40.5279 106.899 22.642 121 15C120.386 17.0811 119.339 18.943 119.137 19.4902C118.721 20.8962 107.907 44.748 95 63.5Z" fill="#ABBCBE"/>
<path fill-rule="evenodd" clip-rule="evenodd" d="M118.08 93.9301C114.989 94.1877 112.887 94.432 112.547 94.5031C111.079 94.8105 107.545 95.3738 107.899 101.842C108.612 114.846 116.134 119.158 125.258 121.088C121.595 112.228 118.001 102.246 117.021 98.8662C116.435 96.8503 116.967 95.2423 118.08 93.9301Z" fill="#60848D"/>
<path fill-rule="evenodd" clip-rule="evenodd" d="M155.946 106.608C156.338 103.122 155.765 99.7131 153.397 96.783C150.533 93.2408 137.837 92.9281 127.341 93.3536C128.955 94.601 129.985 95.302 129.985 95.302C129.985 95.302 144.51 105.4 155.946 106.608Z" fill="#90A9AF"/>
<path fill-rule="evenodd" clip-rule="evenodd" d="M168.934 52.5076C167.273 53.8172 164.833 55.0583 161.53 56.0045C155.266 57.8711 127.443 61.639 109.705 62.2965C110.878 60.6893 112.873 59.2189 116.183 58.3003C127.224 55.2343 157.18 51.1457 166.28 51.8617C167.275 51.9399 168.157 52.1638 168.934 52.5076Z" fill="#B6C1C1"/>
<path fill-rule="evenodd" clip-rule="evenodd" d="M108.718 70.5659C108.718 70.5659 106.918 65.9327 109.818 62.1471C116.404 62.7894 124.501 64.9341 130.669 70.6557C140.075 79.9567 131.436 86.652 127.909 88.4405C126.841 88.9815 125.255 89.5705 123.612 90.3026C118.257 85.6694 111.105 78.338 108.718 70.5659Z" fill="#7A959C"/>
<path fill-rule="evenodd" clip-rule="evenodd" d="M89.3828 70.6344C83.9104 77.5011 78.4068 82.6931 73.5671 84.1226C70.9366 84.9 68.307 84.9826 65.7334 84.5642C66.1928 83.9929 66.6745 83.411 67.1784 82.8193C74.0283 74.7816 80.6338 69.9867 86.0379 67.0797C87.21 68.2391 88.3298 69.4234 89.3828 70.6344Z" fill="#73949D"/>
</svg>
