<svg width="30" height="30" viewBox="0 0 30 30" fill="none" xmlns="http://www.w3.org/2000/svg">
<rect width="30" height="30" rx="2" fill="#4A707A" fill-opacity="0.5"/>
<path fill-rule="evenodd" clip-rule="evenodd" d="M9.41905 21.5051C13.5749 20.8979 16.4364 20.9502 20.5978 21.5263C20.8991 21.57 21.1745 21.7213 21.373 21.9522C21.5716 22.1831 21.6798 22.478 21.6779 22.7825C21.6779 23.0739 21.5777 23.3569 21.3968 23.5779C21.0814 23.9632 20.7584 24.3421 20.4278 24.7144H22.0312C22.132 24.5942 22.2334 24.4716 22.336 24.3471C22.6961 23.9055 22.8926 23.353 22.8922 22.7831C22.8922 21.5537 21.9948 20.4942 20.7641 20.3242C16.5044 19.7347 13.527 19.6782 9.24359 20.3042C8.00016 20.4857 7.10645 21.5615 7.10645 22.7995C7.10645 23.349 7.28555 23.8924 7.62495 24.3325C7.72512 24.4625 7.82409 24.59 7.92245 24.715H9.48705C9.17949 24.3468 8.8795 23.9723 8.58727 23.5918C8.4136 23.364 8.31992 23.0853 8.32073 22.7989C8.32073 22.145 8.79066 21.5968 9.41905 21.5051ZM14.9993 15.6073C15.4777 15.6073 15.9514 15.5131 16.3934 15.33C16.8353 15.1469 17.2369 14.8786 17.5752 14.5403C17.9135 14.2021 18.1818 13.8005 18.3649 13.3585C18.5479 12.9165 18.6422 12.4428 18.6422 11.9644C18.6422 11.4861 18.5479 11.0124 18.3649 10.5704C18.1818 10.1284 17.9135 9.72682 17.5752 9.38855C17.2369 9.05028 16.8353 8.78195 16.3934 8.59888C15.9514 8.41581 15.4777 8.32159 14.9993 8.32159C14.0332 8.32159 13.1066 8.70539 12.4234 9.38855C11.7402 10.0717 11.3564 10.9983 11.3564 11.9644C11.3564 12.9306 11.7402 13.8572 12.4234 14.5403C13.1066 15.2235 14.0332 15.6073 14.9993 15.6073ZM14.9993 16.8216C16.2875 16.8216 17.5229 16.3099 18.4338 15.399C19.3447 14.4881 19.8564 13.2526 19.8564 11.9644C19.8564 10.6762 19.3447 9.44081 18.4338 8.52992C17.5229 7.61903 16.2875 7.1073 14.9993 7.1073C13.7111 7.1073 12.4757 7.61903 11.5648 8.52992C10.6539 9.44081 10.1422 10.6762 10.1422 11.9644C10.1422 13.2526 10.6539 14.4881 11.5648 15.399C12.4757 16.3099 13.7111 16.8216 14.9993 16.8216Z" fill="white"/>
<path fill-rule="evenodd" clip-rule="evenodd" d="M14.9998 25.9285C21.0354 25.9285 25.9284 21.0356 25.9284 15C25.9284 8.96437 21.0354 4.0714 14.9998 4.0714C8.96418 4.0714 4.07122 8.96437 4.07122 15C4.07122 21.0356 8.96418 25.9285 14.9998 25.9285ZM14.9998 27.1428C21.7063 27.1428 27.1426 21.7065 27.1426 15C27.1426 8.29347 21.7063 2.85712 14.9998 2.85712C8.29329 2.85712 2.85693 8.29347 2.85693 15C2.85693 21.7065 8.29329 27.1428 14.9998 27.1428Z" fill="white"/>
</svg>
