<svg width="71" height="65" viewBox="0 0 71 65" fill="none" xmlns="http://www.w3.org/2000/svg">
<path fill-rule="evenodd" clip-rule="evenodd" d="M23.2065 17.5184C25.1977 19.6886 28.5626 20.6201 34.7271 20.7517C35.0781 16.0959 36.8719 12.4289 39.5263 9.8538C42.4761 6.9918 46.3877 5.58106 50.2689 5.58106C54.1502 5.58106 58.0635 6.9918 61.0133 9.8538C63.9832 12.7344 65.8749 16.9852 65.8749 22.4561V41.0186C65.8749 46.2194 65.0093 51.6515 62.3886 55.8348C59.6903 60.1413 55.2352 62.9561 48.5679 62.9561C41.7471 62.9561 37.0001 58.9094 32.6582 55.1632L32.4692 54.9995C28.0986 51.2262 24.0232 47.7112 18.2317 46.9248C15.3917 46.9467 13.4797 47.8141 12.1449 49.0021C10.7612 50.234 9.86681 51.9282 9.30993 53.7474C8.75306 55.5631 8.56068 57.4092 8.51343 58.82C8.48911 59.5345 8.49981 60.2497 8.5455 60.9631C8.54806 60.9997 8.55087 61.0363 8.55393 61.0728L8.55731 61.0964L6.87825 61.2686C5.19918 61.4407 5.19918 61.439 5.19918 61.4373V61.4322L5.1975 61.4171L5.19243 61.3715C5.17252 61.1322 5.15733 60.8925 5.14687 60.6526C5.12662 60.1784 5.11312 59.5085 5.14012 58.7052C5.19412 57.1139 5.41012 54.9506 6.08343 52.7585C6.75337 50.5698 7.90762 48.2546 9.90056 46.481C11.9256 44.6787 14.6897 43.5498 18.3397 43.5498C19.1886 43.5498 19.9884 43.5684 20.7562 43.5869C22.1839 43.6207 23.5035 43.6544 24.8265 43.5532C26.7756 43.4081 28.3821 42.9828 29.7101 41.9889C32.2532 40.082 34.4554 35.5342 34.6494 24.1267C28.3736 23.9967 23.7144 23.0636 20.7208 19.7999C19.0941 18.0281 18.09 15.7077 17.4842 12.8373C16.8817 9.97868 16.6522 6.46699 16.6522 2.20605H20.0272C20.0272 6.38262 20.2551 9.62093 20.7866 12.1404C21.3165 14.6497 22.1248 16.3372 23.2065 17.5184ZM34.4385 52.2404C32.2296 50.3336 29.8687 48.2917 27.1367 46.6514C28.7297 46.3426 30.3024 45.7621 31.7351 44.6889C33.9289 43.0436 35.5826 40.4127 36.6457 36.3729C39.4234 34.4997 41.7082 34.1032 43.713 34.3226C45.8595 34.5588 47.8423 35.5089 50.0293 36.6176L50.3938 36.8032C52.38 37.8123 54.621 38.9531 57.0021 39.2517C58.8897 39.499 60.8079 39.164 62.4999 38.2916V41.0186C62.4999 45.9427 61.6629 50.6356 59.5282 54.0444C57.4695 57.3316 54.1114 59.5794 48.5662 59.5794C43.1713 59.5794 39.3221 56.4558 34.8637 52.6083L34.4385 52.2404ZM62.4999 34.3124V22.4561C62.4999 17.8019 60.9137 14.4573 58.6626 12.2771C56.3946 10.0749 53.3469 8.95606 50.2689 8.95606C47.1909 8.95606 44.1433 10.0749 41.8753 12.2771C39.6259 14.459 38.0396 17.8019 38.0396 22.4561C38.0396 26.1584 37.8506 29.3343 37.4811 32.0512C39.8132 31.0151 42.0002 30.74 44.0826 30.9678C46.9209 31.28 49.4184 32.5237 51.5565 33.6071L51.7084 33.6847C53.8869 34.7883 55.6436 35.6793 57.4239 35.9037C58.9258 36.0927 60.5526 35.8092 62.4999 34.3124Z" fill="white"/>
</svg>
