<svg width="23" height="22" viewBox="0 0 23 22" fill="none" xmlns="http://www.w3.org/2000/svg">
<path d="M22.3924 0.411505C22.1562 0.205546 21.8715 0.0706655 21.5684 0.0211631C21.2653 -0.0283392 20.9551 0.00938143 20.6707 0.130326L1.04759 8.46542C0.730493 8.60252 0.460526 8.83787 0.273528 9.1402C0.0865313 9.44253 -0.00865074 9.79756 0.00061797 10.1581C0.00988668 10.5187 0.123168 10.8678 0.325423 11.1591C0.527678 11.4503 0.80934 11.67 1.13302 11.7889L5.36715 13.3353L7.66164 21.3166C7.66602 21.3328 7.68026 21.3431 7.68683 21.3581C7.71047 21.4218 7.745 21.4804 7.78869 21.531C7.85508 21.609 7.94078 21.6661 8.03621 21.6958C8.04716 21.7004 8.05483 21.7108 8.06578 21.7131H8.07235L8.07564 21.7142C8.16037 21.7334 8.24842 21.7286 8.33082 21.7004C8.33959 21.6981 8.34835 21.6981 8.3582 21.6946C8.43733 21.6654 8.50893 21.6173 8.56739 21.554C8.57396 21.546 8.58492 21.5448 8.59149 21.5379L11.8914 17.7051L16.7071 21.6289C16.9995 21.8698 17.3598 22 17.7311 22C18.535 22 19.2283 21.4077 19.3937 20.5814L22.9663 2.12277C23.0269 1.80941 23.0055 1.48462 22.9044 1.18304C22.8034 0.881465 22.6264 0.614406 22.3924 0.410352V0.411505ZM8.85872 14.8507L8.0844 18.8114L6.46895 13.1901L14.4805 8.7996L9.00767 14.5591C8.93188 14.6388 8.88008 14.7402 8.85872 14.8507ZM18.3204 20.3498C18.2998 20.4543 18.254 20.5515 18.1875 20.632C18.1209 20.7125 18.0358 20.7737 17.9403 20.8096C17.8471 20.8473 17.7462 20.8589 17.6475 20.8431C17.5488 20.8274 17.4557 20.7848 17.3774 20.7197L12.1608 16.4686C12.0518 16.3801 11.915 16.338 11.7778 16.3508C11.6406 16.3636 11.513 16.4304 11.4204 16.5378L9.12377 19.2009L9.89699 15.2517L17.7705 6.96618C17.8628 6.86885 17.9189 6.74004 17.9287 6.603C17.9386 6.46597 17.9016 6.32973 17.8244 6.21887C17.7472 6.10802 17.6349 6.02985 17.5077 5.99847C17.3806 5.96709 17.2469 5.98456 17.1309 6.04774L5.78115 12.2682L1.49116 10.6987C1.37741 10.6592 1.27821 10.5833 1.20734 10.4817C1.13648 10.3801 1.09748 10.2578 1.09578 10.1317C1.09032 10.0046 1.12261 9.87883 1.18816 9.77186C1.25371 9.6649 1.34927 9.58205 1.46159 9.53482L21.0814 1.19973C21.1819 1.15478 21.2924 1.14024 21.4004 1.15775C21.5083 1.17526 21.6095 1.22412 21.6925 1.29883C21.7751 1.36911 21.8374 1.46215 21.8726 1.56756C21.9078 1.67297 21.9145 1.7866 21.8919 1.89576L18.3204 20.351V20.3498Z" fill="#F6F6F6"/>
</svg>
