<svg width="30" height="20" viewBox="0 0 30 20" fill="none" xmlns="http://www.w3.org/2000/svg">
<path d="M0 2.75148C0 1.62722 0.770751 1.18343 1.71937 1.12426L6.13636 1.15385C6.40316 1.15385 6.64032 1.33136 6.72925 1.59763C7.73715 4.85207 8.98221 6.86391 10.4644 9.14201C10.5534 9.31953 10.7016 9.40828 10.8498 9.40828C10.9684 9.40828 11.087 9.34911 11.1759 9.20118L11.2648 8.87574L11.2945 3.7574C11.2945 3.01775 10.9387 2.89941 10.1087 2.78107C9.78261 2.72189 9.5751 2.42604 9.5751 2.13018C9.5751 2.07101 9.5751 2.01183 9.60474 1.95266C10.0198 0.680473 11.3241 0.0295858 13.1621 0.0295858L14.8221 0C16.1858 0 17.4308 0.591716 17.4308 2.33728V9.05325C17.5494 9.14201 17.668 9.20118 17.8162 9.20118C18.0534 9.20118 18.3498 9.05325 18.587 8.66864C20.1285 6.50888 21.8775 3.93491 22.1146 2.57396C22.1146 2.51479 22.1443 2.48521 22.1739 2.42604C22.5 1.77515 23.33 1.33136 23.6858 1.21302C23.7451 1.18343 23.834 1.15385 23.9526 1.15385H28.5474L28.8439 1.18343C29.2885 1.18343 29.6146 1.47929 29.7628 1.74556C30.0296 2.15976 29.9704 2.60355 30 2.78107V2.98817C29.5553 5.68047 26.4723 8.69823 25.168 10.6509C24.9901 10.8876 24.9012 11.0947 24.9012 11.3018C24.9012 11.4793 24.9901 11.6568 25.1383 11.8343L29.4664 17.2781C29.7036 17.6035 29.8221 17.9882 29.8221 18.3136C29.8221 19.2899 28.9032 19.8521 28.0138 19.9408L27.5099 19.9704H23.004C22.915 19.9704 22.8557 20 22.7668 20C22.2628 20 21.8478 19.7337 21.5514 19.4379C20.6028 18.284 19.6838 17.1006 18.7648 15.9467C18.587 15.7101 18.5277 15.6805 18.3498 15.5621C18.1423 16.4201 17.9644 17.3077 17.7569 18.1953L17.668 18.6982C17.5198 19.2308 17.1344 19.7929 16.4229 19.9408L16.0079 19.9704H13.1028C7.97431 19.9704 3.37945 12.6923 0.148221 3.60947C0.0592885 3.37278 0 3.04734 0 2.75148ZM17.8162 10.4142C17.0455 10.4142 16.1858 9.97041 16.1858 9.14201V2.33728C16.1858 1.53846 15.83 1.2426 14.8518 1.2426L13.1621 1.30178C12.2134 1.30178 11.6798 1.4497 11.2352 1.74556C11.917 2.07101 12.5395 2.51479 12.5395 3.7574V8.9645C12.4506 10 11.5909 10.6805 10.7609 10.6805C10.1976 10.6805 9.69368 10.355 9.39723 9.82248C8.06324 7.81065 6.93676 5.91716 5.9585 3.19527L5.6917 2.42604L1.74901 2.39645C1.21542 2.39645 1.2747 2.42604 1.2747 2.69231C1.2747 2.86982 1.30435 3.10651 1.33399 3.25444L1.95652 4.91124C5.18775 13.2544 9.24901 18.7278 13.1028 18.7278H16.0672C16.4822 18.7278 16.4526 18.2249 16.5415 17.929L17.1047 15.3254C17.2233 15.0592 17.3123 14.8225 17.5198 14.6154C17.7569 14.3787 18.0237 14.2899 18.2905 14.2899C18.8538 14.2899 19.3874 14.7337 19.7431 15.1479L22.2628 18.3432C22.4704 18.6686 22.6482 18.7278 22.7668 18.7278H27.6581C28.1324 18.7278 28.5474 18.5799 28.5474 18.284C28.5474 18.1953 28.5178 18.0769 28.4585 17.9882L24.1601 12.6331C23.8043 12.1893 23.6561 11.7456 23.6561 11.3018C23.6561 10.8284 23.834 10.355 24.1304 9.94083C25.3755 8.07692 28.0435 5.4142 28.666 3.22485L28.7549 2.84024C28.7253 2.69231 28.7253 2.57396 28.6957 2.42604H24.0415C23.7451 2.54438 23.5079 2.72189 23.33 2.95858L23.1522 3.52071C22.4704 5.4142 20.6028 8.01775 19.2688 9.82248C18.8241 10.2367 18.3202 10.4142 17.8162 10.4142Z" fill="#F6F6F6"/>
</svg>
