<svg width="24" height="24" viewBox="0 0 24 24" fill="none" xmlns="http://www.w3.org/2000/svg">
<path d="M11.9973 5.08866e-07C9.9049 0.000341606 7.84898 0.547846 6.03353 1.58819C4.21808 2.62853 2.70621 4.12553 1.64793 5.93067C0.589652 7.7358 0.0217635 9.7863 0.000613192 11.8787C-0.0205371 13.9711 0.505787 16.0327 1.52736 17.8588L0.49213 21.4706C0.407595 21.7533 0.401106 22.0535 0.473352 22.3396C0.545598 22.6257 0.693887 22.8869 0.902503 23.0955C1.11112 23.3041 1.37229 23.4524 1.65833 23.5247C1.94438 23.5969 2.24464 23.5904 2.52729 23.5059L6.13883 22.4706C7.73908 23.3666 9.52341 23.8838 11.3547 23.9826C13.1861 24.0813 15.0157 23.759 16.703 23.0402C18.3903 22.3215 19.8904 21.2255 21.0881 19.8365C22.2857 18.4474 23.1491 16.8024 23.6118 15.0276C24.0745 13.2528 24.1243 11.3956 23.7573 9.59855C23.3902 7.80154 22.6162 6.11258 21.4946 4.66141C20.3731 3.21025 18.9338 2.03551 17.2874 1.22744C15.641 0.419365 13.8313 -0.000533583 11.9973 5.08866e-07ZM11.9973 22.5882C10.097 22.5877 8.23187 22.0756 6.59762 21.1059C6.48528 21.0459 6.36026 21.0137 6.23294 21.0118C6.16928 21.0079 6.10547 21.0159 6.04472 21.0353L2.13908 22.1529C2.0982 22.1655 2.05467 22.1667 2.01315 22.1564C1.97164 22.1461 1.93372 22.1247 1.90348 22.0944C1.87323 22.0642 1.8518 22.0263 1.8415 21.9848C1.83119 21.9432 1.8324 21.8997 1.84498 21.8588L2.96256 17.9529C2.98894 17.8608 2.99629 17.7643 2.98416 17.6692C2.97202 17.5741 2.94066 17.4825 2.89198 17.4C1.70061 15.3905 1.20723 13.0434 1.4887 10.7242C1.77017 8.40508 2.81067 6.24414 4.44814 4.578C6.08561 2.91186 8.2281 1.83408 10.5419 1.51254C12.8557 1.19099 15.2108 1.64374 17.2405 2.80026C19.2702 3.95678 20.8604 5.75213 21.7635 7.90666C22.6666 10.0612 22.8318 12.4539 22.2335 14.7121C21.6351 16.9704 20.3067 18.9673 18.4553 20.3919C16.6039 21.8164 14.3333 22.5886 11.9973 22.5882ZM18.0557 13.9765L15.6441 12.6C15.3903 12.4568 15.103 12.3835 14.8116 12.3877C14.5202 12.3918 14.2351 12.4732 13.9854 12.6235L12.4796 13.5294C11.6238 13.074 10.9234 12.3735 10.468 11.5176L11.3738 10.0118C11.5241 9.76207 11.6055 9.47696 11.6096 9.18553C11.6138 8.8941 11.5405 8.6068 11.3973 8.35294L10.0209 5.94118C9.88729 5.70968 9.69531 5.51726 9.46414 5.38308C9.23296 5.24891 8.97065 5.17767 8.70337 5.17647C7.64461 5.17647 6.62903 5.59628 5.87927 6.34388C5.12951 7.09148 4.70674 8.10588 4.70363 9.16471C4.70208 10.4944 4.96262 11.8113 5.47036 13.0402C5.97809 14.2691 6.72306 15.3858 7.66266 16.3266C8.60227 17.2673 9.71808 18.0136 10.9463 18.5228C12.1745 19.032 13.491 19.2941 14.8206 19.2941H14.8324C15.8911 19.291 16.9055 18.8682 17.653 18.1184C18.4006 17.3686 18.8204 16.3529 18.8204 15.2941C18.8192 15.0268 18.7479 14.7645 18.6138 14.5333C18.4796 14.3021 18.2872 14.1101 18.0557 13.9765ZM14.8324 17.8824H14.8206C12.5107 17.8792 10.2965 16.9594 8.66432 15.3249C7.03209 13.6903 6.1153 11.4747 6.1153 9.16471C6.11841 8.4803 6.39245 7.82499 6.87747 7.34215C7.36249 6.8593 8.019 6.58823 8.70337 6.58824C8.73963 6.59121 8.77335 6.60807 8.79748 6.63529L10.1739 9.04706C10.1928 9.08385 10.2016 9.12498 10.1995 9.16628C10.1975 9.20759 10.1846 9.24763 10.1621 9.28235L9.06805 11.1294C9.00611 11.2245 8.9693 11.3337 8.96107 11.4469C8.95284 11.56 8.97346 11.6734 9.021 11.7765C9.66412 13.196 10.8013 14.3333 12.2208 14.9765C12.3238 15.024 12.4372 15.0446 12.5504 15.0364C12.6635 15.0282 12.7727 14.9914 12.8678 14.9294L14.7147 13.8353C14.7495 13.8128 14.7895 13.7999 14.8308 13.7978C14.8721 13.7958 14.9132 13.8046 14.95 13.8235L17.3616 15.2C17.3889 15.2241 17.4057 15.2579 17.4087 15.2941C17.4087 15.9785 17.1376 16.6351 16.6548 17.1201C16.172 17.6052 15.5167 17.8792 14.8324 17.8824Z" fill="#F6F6F6"/>
</svg>
