<svg width="27" height="21" viewBox="0 0 27 21" fill="none" xmlns="http://www.w3.org/2000/svg">
<path d="M17.8323 9.88668L11.9414 5.96146C11.8304 5.88845 11.7018 5.84678 11.5691 5.84087C11.4365 5.83496 11.3046 5.86503 11.1877 5.92789C11.0707 5.99075 10.9729 6.08406 10.9046 6.19794C10.8364 6.31182 10.8002 6.44203 10.8 6.57477V14.4252C10.8001 14.559 10.8368 14.6903 10.906 14.8048C10.9752 14.9194 11.0743 15.0129 11.1927 15.0753C11.309 15.1381 11.4402 15.1678 11.5722 15.1613C11.7041 15.1548 11.8318 15.1124 11.9414 15.0385L17.8323 11.1133C17.9335 11.0462 18.0166 10.955 18.0741 10.848C18.1315 10.741 18.1616 10.6215 18.1616 10.5C18.1616 10.3785 18.1315 10.259 18.0741 10.152C18.0166 10.045 17.9335 9.95382 17.8323 9.88668ZM12.2727 13.0514V7.9486L16.1018 10.5L12.2727 13.0514ZM26.3127 3.42233C26.2059 3.00833 26.0023 2.62562 25.7185 2.30573C25.4347 1.98583 25.0789 1.73791 24.6805 1.58238C20.4955 -0.0245115 13.7823 2.15384e-05 13.5 2.15384e-05C13.2177 2.15384e-05 6.50455 -0.0245115 2.31955 1.58238C1.9211 1.73791 1.56533 1.98583 1.28154 2.30573C0.99775 2.62562 0.794068 3.00833 0.687273 3.42233C0.368182 4.62443 0 6.83237 0 10.5C0 14.1676 0.368182 16.3756 0.687273 17.5777C0.794068 17.9917 0.99775 18.3744 1.28154 18.6943C1.56533 19.0142 1.9211 19.2621 2.31955 19.4176C6.50455 21.0245 13.2177 21 13.5 21H13.5859C14.4327 21 20.6918 20.9509 24.6805 19.4176C25.0789 19.2621 25.4347 19.0142 25.7185 18.6943C26.0023 18.3744 26.2059 17.9917 26.3127 17.5777C26.6318 16.3756 27 14.1676 27 10.5C27 6.83237 26.6318 4.62443 26.3127 3.42233ZM24.8891 17.2097C24.8408 17.3969 24.7489 17.57 24.621 17.715C24.493 17.8599 24.3325 17.9726 24.1527 18.0438C20.2255 19.5525 13.5736 19.528 13.5 19.528C13.4264 19.528 6.77455 19.5525 2.84727 18.0438C2.66745 17.9726 2.50702 17.8599 2.37905 17.715C2.25108 17.57 2.1592 17.3969 2.11091 17.2097C1.81636 16.0812 1.47273 14.0082 1.47273 10.5C1.47273 6.99183 1.81636 4.91882 2.11091 3.79032C2.1592 3.60313 2.25108 3.42999 2.37905 3.28504C2.50702 3.14008 2.66745 3.02741 2.84727 2.95621C6.77455 1.44745 13.4264 1.47198 13.5 1.47198C13.5736 1.47198 20.2255 1.44745 24.1527 2.95621C24.3325 3.02741 24.493 3.14008 24.621 3.28504C24.7489 3.42999 24.8408 3.60313 24.8891 3.79032C25.1836 4.91882 25.5273 6.99183 25.5273 10.5C25.5273 14.0082 25.1836 16.0812 24.8891 17.2097Z" fill="#F6F6F6"/>
</svg>
